<svg width="24" height="18" viewBox="0 0 24 18" fill="none" xmlns="http://www.w3.org/2000/svg">
    <path d="M23.1429 0H0.857143C0.383756 0 0 0.350386 0 0.782609C0 1.21483 0.383756 1.56522 0.857143 1.56522H23.1429C23.6162 1.56522 24 1.21483 24 0.782609C24 0.350386 23.6162 0 23.1429 0Z" fill="#111648"/>
    <path d="M23.1429 7.82617H0.857143C0.383756 7.82617 0 8.17656 0 8.60878C0 9.041 0.383756 9.39139 0.857143 9.39139H23.1429C23.6162 9.39139 24 9.041 24 8.60878C24 8.17656 23.6162 7.82617 23.1429 7.82617Z" fill="#111648"/>
    <path d="M23.1429 16.4346H0.857143C0.383756 16.4346 0 16.785 0 17.2172C0 17.6494 0.383756 17.9998 0.857143 17.9998H23.1429C23.6162 17.9998 24 17.6494 24 17.2172C24 16.785 23.6162 16.4346 23.1429 16.4346Z" fill="#111648"/>
</svg>