<svg width="17" height="17" viewBox="0 0 17 17" fill="none" xmlns="http://www.w3.org/2000/svg">
    <path d="M0.945395 0.000671487C0.757372 0.000696058 0.57365 0.0569638 0.417828 0.162233C0.262005 0.267502 0.141199 0.416959 0.0709252 0.591431C0.000651952 0.765904 -0.0158787 0.95745 0.0234566 1.14139C0.0627919 1.32533 0.156197 1.49325 0.291674 1.62368L7.16404 8.49902L0.291674 15.3745C0.200966 15.4611 0.128454 15.565 0.0783838 15.6801C0.028314 15.7951 0.00169243 15.9189 7.81038e-05 16.0444C-0.00153623 16.1699 0.0218892 16.2944 0.0689824 16.4107C0.116076 16.527 0.18589 16.6328 0.274338 16.7218C0.362786 16.8108 0.46809 16.8812 0.584083 16.9289C0.700076 16.9767 0.824428 17.0009 0.949856 17C1.07528 16.9991 1.19927 16.9731 1.31455 16.9236C1.42983 16.8741 1.53408 16.8022 1.62121 16.7119L8.49911 9.8347L15.3733 16.7119C15.461 16.7999 15.5653 16.8698 15.68 16.9175C15.7948 16.9652 15.9178 16.9899 16.0421 16.99C16.1663 16.9901 16.2894 16.9657 16.4043 16.9182C16.5191 16.8706 16.6234 16.8009 16.7113 16.713C16.7992 16.6251 16.8688 16.5207 16.9164 16.4058C16.9639 16.291 16.9883 16.1678 16.9882 16.0434C16.9881 15.9191 16.9635 15.7961 16.9158 15.6813C16.8681 15.5665 16.7982 15.4622 16.7102 15.3745L9.83417 8.49902L16.7102 1.62368C16.8481 1.49122 16.9425 1.32003 16.9808 1.13269C17.0192 0.945349 16.9997 0.750703 16.925 0.574677C16.8503 0.398651 16.7239 0.24952 16.5626 0.147001C16.4012 0.0444835 16.2125 -0.00654064 16.0215 0.000671487C15.7766 0.00797465 15.5441 0.110424 15.3733 0.28626L8.49911 7.16344L1.62121 0.28626C1.53335 0.195901 1.42828 0.124025 1.3122 0.0749788C1.19613 0.0259323 1.0714 0.00067954 0.945395 0.000671487V0.000671487Z" fill="#111648"/>
</svg>