<svg xmlns="http://www.w3.org/2000/svg" width="11.208" height="22.453" viewBox="0 0 11.208 22.453">
    <path d="M951.8,101.6V90.381H949v-3.5h2.8v-.256c0-1.2-.027-2.4.01-3.595a3.725,3.725,0,0,1,.813-2.169,3.994,3.994,0,0,1,2.447-1.59,5.367,5.367,0,0,1,.921-.112c.9-.015,1.8-.005,2.7-.005.035,0,.07,0,.117.007v3.5c-.092,0-.191,0-.289,0a12.862,12.862,0,0,0-1.558.1,1.21,1.21,0,0,0-.936,1.12c-.036.985-.011,1.972-.011,2.977h4.2c-.159.4-.3.773-.452,1.143-.286.718-.577,1.433-.854,2.154a.308.308,0,0,1-.348.229c-.839-.013-1.679-.006-2.549-.006V101.6Z" transform="translate(-949.003 -79.15)" fill="#0a62ae"/>
</svg>
