<svg xmlns="http://www.w3.org/2000/svg" width="53.988" height="63.571" viewBox="0 0 53.988 63.571">
  <g id="Group_143" data-name="Group 143" transform="translate(0 1)">
    <g id="Group_142" data-name="Group 142" transform="translate(0 8.587)">
      <path id="Path_270" data-name="Path 270" d="M179.438,1268.421a1.115,1.115,0,0,0-.849,1.291,19.844,19.844,0,0,1,.015,2.037h-1.681v-1.528c-.6.263-.937.571-.864,1.242a18.65,18.65,0,0,1,.015,1.976H174.4v-1.611h-2.748c0,1.264.056,2.525-.018,3.778-.058.977-.292,1.942-.419,2.916a17.758,17.758,0,0,0-.2,2.139c-.023,2.741-.009,5.482-.009,8.223v.612c1.258,0,2.466.023,3.671-.025a.74.74,0,0,0,.5-.527.788.788,0,0,0-.461-.577c-.679-.229-1.386-.379-2.086-.543a.92.92,0,0,1-.788-1.015c.007-2.425,0-4.849.009-7.274a1.032,1.032,0,0,1,.143-.6,7.718,7.718,0,0,0,1.22-3.651c.058-.326.091-.657.143-1.045l1.666.167a13.008,13.008,0,0,1-1.285,4.986,1.272,1.272,0,0,0-.2.575c-.014,2.038-.008,4.076-.007,6.114a2.156,2.156,0,0,0,.029.236l1.423.351a2.275,2.275,0,0,1-.534,4.516c-1.282,0-2.565,0-3.848,0-1.076,0-1.279-.2-1.289-1.3,0-.1,0-.209,0-.392-.678,0-1.342-.045-2,.009a2.712,2.712,0,0,1-3.079-3.1c.085-1.471.066-2.953.005-4.426a29.351,29.351,0,0,1,.572-6.586,15.844,15.844,0,0,0,.161-2.833c0-.752-.073-.779-.83-.779h-.713v1.644H161.75v-1.615h-1.676v1.623h-1.7v-1.653c-.521,0-1,0-1.489,0-.757-.006-1.055-.3-1.056-1.052,0-3.11-.007-6.22.007-9.329a.628.628,0,0,0-.407-.686c-.7-.314-1.376-.673-2.128-1.046a6,6,0,0,0,.3,2.431,17.305,17.305,0,0,1,1.169,5.431c.048.454.037.917.117,1.364.425,2.378-.27,4.6-1,6.795a7.142,7.142,0,0,0-.2,4c.714,3.111,1.289,6.254,1.9,9.388.064.327.17.435.5.426.843-.023,1.687-.011,2.53-.005.295,0,.553-.064.564-.4.012-.373-.257-.451-.574-.444q-.527.011-1.054,0a.836.836,0,0,1-.879-.746q-.843-4.582-1.669-9.167a1,1,0,0,1,.028-.467c.45-1.382.912-2.76,1.393-4.2l1.6.516c-.292.889-.526,1.77-.87,2.605a4.669,4.669,0,0,0-.209,2.86c.46,2.2.813,4.417,1.212,6.628a2.87,2.87,0,0,0,.09.294c.208,0,.415-.009.622,0a2.107,2.107,0,0,1,2.013,2.1,2.082,2.082,0,0,1-2.008,2.1c-1.282.032-2.565.012-3.847.007a.844.844,0,0,1-.885-.741c-.093-.425-.175-.851-.278-1.357-.145.159-.245.265-.342.374a2.48,2.48,0,0,1-1.9.881q-1.634.014-3.268,0c-.649-.006-.954-.323-.964-.984-.008-.545-.033-1.091,0-1.634a23.515,23.515,0,0,0-1.333-8.743c-.1-.328-.238-.648-.359-.971v-2.319a7.344,7.344,0,0,0,2.288-4.033,28.989,28.989,0,0,0,1.092-7.586,10.613,10.613,0,0,1,1.34-5.834c-.506-.255-.993-.5-1.475-.745-.847-.438-.939-.941-.309-1.661q2.62-2.994,5.235-5.993a1.8,1.8,0,0,0,.35-.63,2.539,2.539,0,0,1,2.505-1.875c.808-.007,1.617-.025,2.424.008a.666.666,0,0,0,.792-.535,12.617,12.617,0,0,1,.776-1.895,3,3,0,0,1,1.971-1.7,2.936,2.936,0,0,1,3.215,1.171,21.723,21.723,0,0,1,1.43,2.611,1.784,1.784,0,0,0,.319.335c.106-.113.26-.208.311-.342.193-.508.312-1.048.544-1.535.121-.255.4-.578.641-.608a3.639,3.639,0,0,1,2.984.681,6.084,6.084,0,0,1,1.872,2.995,5.061,5.061,0,0,0,1.24,2.094c.133.14.252.293.384.434a18.08,18.08,0,0,0,5.027,4.114c2.161,1.074,3.132.76,4.276-1.35a22.619,22.619,0,0,0,1.888-5.288c.114-.45.227-.9.345-1.368l1.729.389c-.565,1.8-1.065,3.554-1.665,5.269a9.364,9.364,0,0,1-2.138,3.592,3.193,3.193,0,0,1-3.018.983c-.3-.059-.607-.112-.926-.171v5.228c.253-.036.478-.054.7-.1a9,9,0,0,0,5.2-3.46,25,25,0,0,0,4.3-9.184c.3-1.092.534-2.2.805-3.336l1.667.271c-.306,1.291-.557,2.529-.894,3.744a25.807,25.807,0,0,1-4.679,9.75A10.367,10.367,0,0,1,182,1264.04c-.592.107-1.2.14-1.809.208a10.713,10.713,0,0,0,3.789,3.6c2.028,1.014,3.273.688,4.532-1.195a18.832,18.832,0,0,0,2.2-4.876,106.741,106.741,0,0,0,3.817-20.243,1.022,1.022,0,0,0-.6-1.191c-.144.851-.75,1.111-1.491,1.239-.569.1-1.127.262-1.685.415-.763.209-1.531.529-2.177-.325-.116.4-.053.56.306.624a.74.74,0,0,1,.666.822c-.092.882-.252,1.757-.391,2.678l-1.657-.308c.046-.285.075-.526.126-.762.115-.532.239-1.046-.343-1.428a1.072,1.072,0,0,1-.31-.539,3.688,3.688,0,0,1,.062-2.278.874.874,0,0,1,1.15-.708,1.689,1.689,0,0,1,.748.228,2.118,2.118,0,0,0,2.211.161,7.849,7.849,0,0,0,.811-.218,1.014,1.014,0,0,0,.494-.391,4.358,4.358,0,0,1,2.494-2.345h4.217a1.278,1.278,0,0,1,.536,1.222c-.034.877-.009,1.756-.009,2.634,0,.947-.241,1.192-1.168,1.2-.138,0-.276.014-.331.017-.221.836-.423,1.628-.646,2.415a3.087,3.087,0,0,1-.283.54l-1.342-.832c-.154,1.106-.288,2.154-.448,3.2-.855,5.587-1.745,11.171-3.808,16.472a19.238,19.238,0,0,1-2.017,3.853c-1.539,2.252-3.407,2.7-5.926,1.641a10.433,10.433,0,0,1-3.751-2.833,25.117,25.117,0,0,1-5.132-9.75c-.516-1.761-.8-3.59-1.2-5.386a1.254,1.254,0,0,0-.241-.563,4.265,4.265,0,0,1-.872-1.651,10.2,10.2,0,0,0-.877-1.9,2.456,2.456,0,0,0-.766-.777c-.634-.425-.92-.3-1.16.413q-.184.549-.374,1.1c-.224.648-.423.788-1.121.792-.4,0-.808,0-1.212,0-.681-.005-.876-.191-1.088-.827a18.265,18.265,0,0,0-.81-2.047,3.1,3.1,0,0,0-.7-.909,1.233,1.233,0,0,0-2.077.281,16.766,16.766,0,0,0-.8,1.823c-.146.337-.271.686-.442,1.01a1.2,1.2,0,0,1-1.16.672c-1.036-.013-2.074-.032-3.108.015a1.494,1.494,0,0,0-.847.4c-.194.177-.155.433.218.425.123,0,.246,0,.369,0h15.257v1.669h-2.454v4.224h4.148v1.676H169.36v4.212h4.619c-.027-.528-.052-1.029-.08-1.591l1.649-.126a54.732,54.732,0,0,1,.111,9.053l2.959-2.1c.3.426.6.828.874,1.247.041.063-.045.209-.072.316Zm-26.263,17.3a.79.79,0,0,0,0-.177c-.362-1.805-.657-3.627-1.109-5.41a7.967,7.967,0,0,1,.159-4.774,12.64,12.64,0,0,0,.976-6.475c-.126-.706-.121-1.435-.22-2.147a12.57,12.57,0,0,0-1.237-4.647,1.472,1.472,0,0,1-.121-.66c-.016-.546-.005-1.093-.005-1.64a1.749,1.749,0,0,0-.422.86,31.7,31.7,0,0,0-.4,3.491,30.641,30.641,0,0,1-1.083,7.64c-.459,1.615-.871,3.269-2.192,4.472a.447.447,0,0,0-.11.329,7.414,7.414,0,0,0,.189,1.549,26.72,26.72,0,0,1,1.492,9.879c-.014.2,0,.408,0,.642.905,0,1.746.019,2.585-.008a.81.81,0,0,0,.785-.833.832.832,0,0,0-.788-.833c-.226-.021-.456-.006-.684-.009-.753-.009-1.012-.3-1.061-1.056-.087-1.347-.145-2.7-.338-4.035-.147-1.016-.194-2.123-1.157-2.833a.465.465,0,0,1-.156-.325c-.014-.684-.019-1.368,0-2.052a.673.673,0,0,1,.223-.405c.586-.55,1.188-1.084,1.8-1.638l1.162,1.067c-.436.458-.825.887-1.236,1.293a1.045,1.045,0,0,0-.174,1.27,5.942,5.942,0,0,1,1.132,2.855c.215,1.365.342,2.744.5,4.1Zm4.367-15.644h16.233l.222-1.631H157.543Zm11.726,17.732c.153-1.04.153-1.04-.741-1.339-.332-.111-.663-.229-1-.33a.941.941,0,0,1-.737-1.01c.009-2.141,0-4.283.011-6.424a1.069,1.069,0,0,1,.165-.642,5.05,5.05,0,0,0,1.04-2.5c.214-1.233.352-2.478.527-3.746h-1.8a39.379,39.379,0,0,1-.269,4.111,28.588,28.588,0,0,0-.526,5.739c.062,1.718.01,3.44.015,5.16,0,.571.268.947.754.967C167.564,1287.83,168.42,1287.8,169.269,1287.8Zm-16.06-30.074,7.105,3.546.073-.1-4.016-7.135Zm14.394-1.991v-4.151h-4.151v4.151Zm.014,1.748h-4.152v4.151h4.152Zm-5.881,9.229a12.729,12.729,0,0,1,.016-1.772,1.306,1.306,0,0,0-.966-1.563c-1.09-.462-2.132-1.038-3.223-1.579v4.914Zm7.614-.015h4.717v-3.319H169.35Zm6.43-13.006c.011,1.781,2.59,8.361,3.667,9.328,0-1.666-.083-3.319.029-4.959a2.268,2.268,0,0,0-1.269-2.471A18.5,18.5,0,0,1,175.78,1253.7Zm-14.064-2.106h-4.787c.771,1.367,1.506,2.678,2.252,3.982a.4.4,0,0,0,.276.183c.747.015,1.494.008,2.259.008Zm5.9,15.116v-3.319H163.46v3.319Zm-17.171-10.368a6.744,6.744,0,0,1,.744.387c.343.237.555.163.818-.157.9-1.1,1.835-2.163,2.757-3.241.791-.925.791-.925.053-1.984Zm19.6,17.573a24.873,24.873,0,0,1-.505,2.462c-.248.812-.645,1.578-.963,2.37a1.4,1.4,0,0,0-.082.5c-.006,1.6,0,3.192,0,4.788,0,.744.04.784.926.834C168.981,1281.165,169.672,1277.535,170.037,1273.909Zm25.141-34.956c.808.787,1.287,2.118,2.785,1.553v-1.553ZM161.7,1260.07v-2.578h-1.45Z" transform="translate(-145.712 -1237.209)" fill="#fff"/>
      <path id="Path_271" data-name="Path 271" d="M350.274,1426.64h1.688v1.622h-1.668c0-.536,0-1.088,0-1.639Z" transform="translate(-316.566 -1395.411)" fill="#fff"/>
    </g>
    <circle id="Ellipse_33" data-name="Ellipse 33" cx="2.773" cy="2.773" r="2.773" transform="translate(31.228 2.95)" fill="none" stroke="#fff" stroke-miterlimit="10" stroke-width="2"/>
    <path id="Path_272" data-name="Path 272" d="M328.767,1190.821c0,3.161-5.724,13-5.724,13s-5.724-9.836-5.724-13a5.724,5.724,0,0,1,11.447,0Z" transform="translate(-289.042 -1185.097)" fill="none" stroke="#fff" stroke-miterlimit="10" stroke-width="2"/>
  </g>
</svg>
