<svg xmlns="http://www.w3.org/2000/svg" width="33" height="33" viewBox="0 0 33.866 33.894">
  <g transform="translate(0)">
    <path d="M2571,1030.148q1.554.011,3.108.021c.552,0,1.1.01,1.655-.006a.518.518,0,0,0,.362-.152,11.6,11.6,0,0,1,5.811-3.952.477.477,0,0,0,.392-.58,22.958,22.958,0,0,0-1.843-7.866c-.021-.049-.048-.095-.1-.2-.053.135-.093.225-.124.318q-.662,1.989-1.318,3.978c-.091.276-.2.519-.533.554s-.521-.175-.66-.447a5.585,5.585,0,0,1-.544-4.276c.005-.017-.009-.041-.019-.082-.808.435-1.6.877-2.417,1.291a.9.9,0,0,1-.587.079c-.315-.083-.372-.368-.354-.666a4.376,4.376,0,0,1,2.146-3.492c.218-.144.453-.26.736-.421l-1.935-.657-1.063-.357c-.25-.084-.469-.245-.438-.51a.884.884,0,0,1,.309-.565,5.051,5.051,0,0,1,5.575-.114c.09.058.181.114.27.169a10.629,10.629,0,0,1,.212-1.242,4.854,4.854,0,0,1,3.662-3.368.614.614,0,0,1,.541.194.806.806,0,0,1,.067.637c-.312.846-.671,1.675-1.013,2.51-.04.1-.078.2-.129.327.391-.091.747-.192,1.108-.255a4.782,4.782,0,0,1,2.8.393.364.364,0,0,0,.461-.076c.284-.256.6-.473.937-.728l-1.819-.586a3.265,3.265,0,0,1-.687-.227,1.069,1.069,0,0,1-.439-.479c-.09-.233.073-.436.282-.578a4.965,4.965,0,0,1,4.024-.8l.178.038c-.052-.115-.082-.2-.125-.277-.475-.857-.95-1.715-1.431-2.569a.6.6,0,0,1,0-.71.591.591,0,0,1,.654-.207,5.539,5.539,0,0,1,3.246,1.829,4.706,4.706,0,0,1,1.035,2.48l.313-.273a4.933,4.933,0,0,1,5.527-.661.629.629,0,0,1,.414.549.618.618,0,0,1-.42.576c-.841.409-1.678.826-2.517,1.241-.1.048-.191.1-.323.173a4.959,4.959,0,0,1,2.228,1.379,4.056,4.056,0,0,1,1,2.049.656.656,0,0,1-.192.688.624.624,0,0,1-.684.039c-.747-.295-1.5-.577-2.249-.863-.069-.026-.139-.048-.172-.06.123.538.282,1.073.361,1.618a5.834,5.834,0,0,1-.4,2.849.619.619,0,0,1-.558.488.631.631,0,0,1-.607-.426q-.827-1.58-1.664-3.155c-.056-.106-.115-.21-.217-.4a28.069,28.069,0,0,0-1.509,11c.686.17,1.372.313,2.042.511a12.68,12.68,0,0,1,5.16,2.777,12.437,12.437,0,0,1,1.167,1.3.564.564,0,0,0,.5.239c1.434-.007,2.868,0,4.3,0h.379v1.157h-33.4c-.154,0-.308.007-.462.012Zm13.549-2.235c0-.135,0-.254,0-.373a28.627,28.627,0,0,0-.57-5.348,20.783,20.783,0,0,0-2.412-6.463c-.321-.537-.212-.531-.8-.17a23.744,23.744,0,0,1,2.674,12.972l-1.118-.074v-1.332a11.249,11.249,0,0,0-4.838,3.016h20.893c-1.982-2.708-9-4.755-12.7-3.725v1.5Zm3.346-2.833a29.4,29.4,0,0,1,.377-5.882,28.912,28.912,0,0,1,1.6-5.691l-3.22,1.317a4.81,4.81,0,0,1,1.26,2.147.516.516,0,0,1-.156.626.9.9,0,0,1-.6.1c-.47-.106-.927-.275-1.389-.42l-2.329-.737c.461,1.394,1,2.789,1.376,4.23s.578,2.951.857,4.431Zm2.268.126a29.351,29.351,0,0,1,2.317-13.129c-.582-.293-.578-.291-.838.251a26.766,26.766,0,0,0-2.627,11.351c-.006.479,0,.958,0,1.433Zm.585-13.711a2.934,2.934,0,0,0-3.6,1.88c.091-.033.171-.059.248-.091.9-.369,1.8-.754,2.713-1.1A.886.886,0,0,0,2590.749,1011.494Zm-4.416,4.766c-.8-1.288-3.23-2.122-3.974-1.371a1.16,1.16,0,0,0,.283.205C2583.851,1015.483,2585.064,1015.861,2586.333,1016.26Zm-11.092.954,3.91-2.113A3.666,3.666,0,0,0,2575.24,1017.215Zm18.429-5.938,4.059,1.551A3.525,3.525,0,0,0,2593.669,1011.276Zm-.12,1.283a.509.509,0,0,0-.017.665c.486.885.949,1.782,1.421,2.674.041.077.094.147.169.264A3.385,3.385,0,0,0,2593.55,1012.56Zm-.32-2.359,3.912-1.924A3.661,3.661,0,0,0,2593.229,1010.2Zm-3.5-4.417,2.05,3.66A3.375,3.375,0,0,0,2589.727,1005.784Zm-14.394,6.8,4.168,1.4A3.744,3.744,0,0,0,2575.333,1012.583Zm5.352.431.1.034,1.57-3.795A3.413,3.413,0,0,0,2580.685,1013.014Zm4.512-.792c-1.575-.256-3.23.507-3.4,1.546Zm2.039-3.077,3.636,1.15C2590.518,1009.248,2588.423,1008.614,2587.236,1009.144Zm-7.693,7.119a3.229,3.229,0,0,0-1.228,3.711Zm5.187-2.569.964.407.245-.962Z" transform="translate(-2571 -1004.196)" fill="#fff"/>
    <path d="M2724.75,1376.83v-1.105h6.222v1.105Z" transform="translate(-2711.181 -1342.936)" fill="#fff"/>
    <path d="M2711.777,1324.422h15.8v1.1H2711.8c-.008-.1-.019-.2-.021-.3C2711.776,1324.965,2711.777,1324.7,2711.777,1324.422Z" transform="translate(-2699.353 -1296.161)" fill="#fff"/>
    <path d="M2756.741,1350h9v1.1h-9Z" transform="translate(-2740.349 -1319.477)" fill="#fff"/>
    <path d="M2668.037,1350.1v1.093h-7.325V1350.1Z" transform="translate(-2652.794 -1319.576)" fill="#fff"/>
    <path id="Path_219" data-name="Path 219" d="M2635.058,1324.46v1.094h-6.183v-1.094Z" transform="translate(-2623.767 -1296.196)" fill="#fff"/>
    <path d="M2783.445,1268h-1.107v-1.1h1.107Z" transform="translate(-2763.687 -1243.711)" fill="#fff"/>
    <path d="M2750.34,1274.306v-1.1h1.094v1.1Z" transform="translate(-2734.512 -1249.464)" fill="#fff"/>
    <path d="M2814.21,1274.327V1273.2h1.131c0,.327.008.653-.007.977a.229.229,0,0,1-.166.144C2814.862,1274.334,2814.555,1274.327,2814.21,1274.327Z" transform="translate(-2792.746 -1249.458)" fill="#fff"/>
  </g>
</svg>
