<svg xmlns="http://www.w3.org/2000/svg" width="54.249" height="47.229" viewBox="0 0 54.249 47.229">
  <g id="Group_8" data-name="Group 8" transform="translate(-176.827 -6.44)">
    <path id="Path_313" data-name="Path 313" d="M183.833,24.746V22.161c-.554,0-1.092.009-1.629,0a.86.86,0,0,1-.972-.972c-.009-.512-.009-1.024-.017-1.527a1.016,1.016,0,0,0-.051-.119c-.5,0-1.041.009-1.587,0a.856.856,0,0,1-.972-.972c-.009-1.4-.009-2.806,0-4.205a.841.841,0,0,1,.947-.938c1.109-.009,2.226-.009,3.335,0,.648.009.955.324.955.99.009,1.331,0,2.661,0,3.992,0,.759-.128.938-.862,1.194v.785h.81a1.874,1.874,0,0,1,.2-.486,5.339,5.339,0,0,0,.742-3.327,16.532,16.532,0,0,1,.324-5.1c.333-1.135.7-2.252,1.1-3.361A2.54,2.54,0,0,1,188.6,6.44H219.26a2.64,2.64,0,0,1,2.568,1.834,17.719,17.719,0,0,1,1.373,7.771,8.2,8.2,0,0,0,.026,2.286,10.54,10.54,0,0,0,.9,2.073h.785v-.81c-.717-.136-.879-.631-.862-1.314.034-1.271.009-2.551.009-3.822,0-.725.3-1.024,1.032-1.024,1.075,0,2.15-.009,3.224,0,.682,0,.99.316.99,1.007q.013,2.047,0,4.095c0,.691-.307,1-.99,1.007-.52.009-1.049,0-1.629,0v1.612c-.009.691-.307,1-.99,1.007-.52.009-1.049,0-1.6,0v2.585c1.578.452,3.182.9,4.777,1.365a2.675,2.675,0,0,1,2.192,2.9v2.516c0,.751-.128.93-.862,1.194v2.5c.751.282.862.444.862,1.245,0,.947-.026,1.894.009,2.841.026.665-.162,1.143-.887,1.271,0,3.4-.06,6.773.026,10.143a2.783,2.783,0,0,1-2.952,2.943,43.2,43.2,0,0,0-4.7,0,2.769,2.769,0,0,1-2.883-2.909c.077-2.7.017-5.391.017-8.087v-.614l-.981.145c-.222,1.322-.444,2.661-.674,4a5.289,5.289,0,0,1-.119.64.825.825,0,0,1-.819.674c-.128.009-.256,0-.384,0H191.144c-.87,0-1.083-.154-1.237-1.024-.256-1.425-.486-2.858-.725-4.3-.316-.051-.606-.1-.981-.162v8.846a2.593,2.593,0,0,1-2.772,2.755c-1.7,0-3.387.009-5.084,0a2.591,2.591,0,0,1-2.636-2.619c-.009-3.276,0-6.56,0-9.836v-.589c-.768-.29-.87-.452-.87-1.262V36.373c0-.725.145-.913.853-1.152V32.679c-.691-.119-.887-.589-.862-1.254.034-.853.009-1.715.009-2.568a2.6,2.6,0,0,1,2.056-2.721C180.54,25.685,182.178,25.215,183.833,24.746ZM186.495,16h34.957c0-.162-.009-.29,0-.418a14.932,14.932,0,0,0-1.16-6.33c-.375-1.007-.444-1.083-1.527-1.083h-30a.947.947,0,0,0-1.015.725c-.213.674-.427,1.348-.674,2.013A12.984,12.984,0,0,0,186.495,16Zm17.479,19.279H217.2a1.125,1.125,0,0,0,.572-.085,14.552,14.552,0,0,0,1.808-1.305,2.853,2.853,0,0,0,1.015-2.354c-.068-1.416-.017-2.841-.017-4.257a1.091,1.091,0,0,0-.043-.478c-.657-1.117-1.382-2.192-2.772-2.423a22.231,22.231,0,0,0-3.506-.427c-6.577-.043-13.145-.026-19.722-.017a23.3,23.3,0,0,0-2.67.119,11.917,11.917,0,0,0-2.175.469A3.509,3.509,0,0,0,187.97,25.9a2.955,2.955,0,0,0-.631,2c.06,1.382.009,2.764.026,4.154a1.959,1.959,0,0,0,.171.725,5.033,5.033,0,0,0,2.286,2.192,2.132,2.132,0,0,0,1,.307C195.2,35.29,199.589,35.281,203.973,35.281Zm-17.6-17.462a8.452,8.452,0,0,0,.324,1.041,23.032,23.032,0,0,0,1.177,2.337,9.749,9.749,0,0,0,1.22,1.442c.077.085.3.06.444.043a34.373,34.373,0,0,1,3.932-.486q10.518-.077,21.027,0a35.038,35.038,0,0,1,3.873.478.811.811,0,0,0,.563-.136,4.768,4.768,0,0,0,1.373-1.8c.282-.665.657-1.3.955-1.953a6.471,6.471,0,0,0,.247-.955C209.774,17.82,198.156,17.82,186.375,17.82ZM216.9,42.3H191.024c.2,1.169.384,2.312.572,3.438h1.015V44.05h1.74v1.68h1.757V44.059h1.757v1.68h1.74v-1.68h1.757v1.672h1.757V44.05h1.74v1.672h1.757V44.059h1.757v1.68h1.74V44.05h1.74v1.68h1.757V44.059h1.757v1.7h.972C216.513,44.613,216.7,43.47,216.9,42.3Zm8.923,9.6h1.356c.99,0,1.271-.282,1.271-1.262V40.809c-.913.128-1.757.256-2.653.384v7.183h-1.732V41.44c-.9.128-1.749.256-2.61.375v8.94c0,.7.273,1.083.845,1.126s1.152.009,1.791.009v-1.7h1.732C225.82,50.755,225.82,51.284,225.82,51.9Zm-41.986-.051a1.53,1.53,0,0,0,.23.043c.452,0,.913.009,1.365,0a.935.935,0,0,0,1.041-1.049c.009-.64,0-1.271,0-1.911V42.268c0-.23.051-.486-.3-.529-.759-.094-1.527-.2-2.337-.307v6.927h-1.749V41.167c-.879-.119-1.715-.239-2.6-.358V50.815c0,.623.273,1.015.8,1.058.589.043,1.186.009,1.843.009V50.167h1.715C183.833,50.738,183.833,51.276,183.833,51.847Zm15.781-11.354h8.675V37.064h-8.675ZM185.582,26.572a7.759,7.759,0,0,0-1.672.017c-1.544.384-3.071.853-4.606,1.3a.869.869,0,0,0-.691.819c-.026.717-.009,1.442-.009,2.175h6.969C185.582,29.429,185.582,28.022,185.582,26.572Zm36.766,4.3h6.978V29.045c0-.768-.171-1-.9-1.211-1.356-.392-2.7-.819-4.078-1.16a13.658,13.658,0,0,0-2-.188C222.348,28.013,222.348,29.421,222.348,30.871Zm-34.156,9.375v-3.19H178.63v1.817C181.82,39.333,184.976,39.785,188.192,40.246Zm31.545-3.19v3.2q4.824-.691,9.537-1.365V37.055ZM197.806,40.5V37.064h-7.8V40.5Zm12.318-3.446v3.429h7.805V37.055Zm-24.7-4.359h-5.912v2.551h2.593V33.558h1.74v1.68h3.173C186.5,34.411,185.983,33.575,185.428,32.7ZM228.4,35.256V32.671h-5.9c-.572.913-1.1,1.757-1.621,2.585h3.2v-1.68h1.757v1.68Zm-48.026-17.5h1.68V15.2h-1.68Zm45.484-2.576V17.76h1.663V15.184Zm-38.387,8.6c-.648-1-1.254-1.936-1.843-2.841v3.779C186.7,25.139,186.955,24.132,187.476,23.782Zm34.8.981v-3.8c-.6.913-1.211,1.851-1.834,2.806C221.469,24.823,221.469,24.823,222.271,24.763Z" transform="translate(0)" fill="#fff"/>
    <path id="Path_314" data-name="Path 314" d="M211.092,9.67c.358.5.674.947,1.024,1.442-2.047,1.459-4.078,2.909-6.133,4.385-.358-.495-.682-.955-1.032-1.442C207,12.6,209.019,11.154,211.092,9.67Z" transform="translate(-4.133 -0.475)" fill="#fff"/>
    <path id="Path_315" data-name="Path 315" d="M191.21,32.5a3.5,3.5,0,1,1,3.523,3.472A3.47,3.47,0,0,1,191.21,32.5Zm3.515,1.715a1.745,1.745,0,1,0-1.757-1.732A1.8,1.8,0,0,0,194.725,34.218Z" transform="translate(-2.114 -3.313)" fill="#fff"/>
    <path id="Path_316" data-name="Path 316" d="M224.855,32.469a3.5,3.5,0,1,1-3.506-3.489A3.475,3.475,0,0,1,224.855,32.469Zm-3.506-1.74a1.744,1.744,0,1,0,1.749,1.74A1.783,1.783,0,0,0,221.349,30.729Z" transform="translate(-6.03 -3.313)" fill="#fff"/>
    <path id="Path_317" data-name="Path 317" d="M203.18,36.827H201.5v-7.8h1.68Z" transform="translate(-3.626 -3.32)" fill="#fff"/>
    <path id="Path_318" data-name="Path 318" d="M206.25,36.822h-1.68V29h1.68Z" transform="translate(-4.077 -3.315)" fill="#fff"/>
    <path id="Path_319" data-name="Path 319" d="M209.358,29.03v7.78h-1.7V29.03Z" transform="translate(-4.531 -3.32)" fill="#fff"/>
    <path id="Path_320" data-name="Path 320" d="M210.72,29.01h1.68v7.805h-1.68Z" transform="translate(-4.981 -3.317)" fill="#fff"/>
    <path id="Path_321" data-name="Path 321" d="M213.8,29.01h1.68v7.8H213.8Z" transform="translate(-5.434 -3.317)" fill="#fff"/>
    <path id="Path_322" data-name="Path 322" d="M195.35,43.36h2.559v1.68H195.35Z" transform="translate(-2.722 -5.426)" fill="#fff"/>
    <path id="Path_323" data-name="Path 323" d="M218.89,45.04V43.65c0-.085.009-.171.017-.29h2.559v1.68Z" transform="translate(-6.182 -5.426)" fill="#fff"/>
  </g>
</svg>
