<svg xmlns="http://www.w3.org/2000/svg" width="242.526" height="284.084" viewBox="0 0 242.526 284.084">
  <g id="Group_143" data-name="Group 143" transform="translate(0 3)">
    <g id="Group_142" data-name="Group 142" transform="translate(0 38.575)">
      <path id="Path_270" data-name="Path 270" d="M297.218,1377.421c-2.688,1-4.149,2.621-3.814,5.8a89.134,89.134,0,0,1,.067,9.149h-7.553V1385.5c-2.683,1.182-4.207,2.564-3.881,5.58a83.771,83.771,0,0,1,.067,8.878h-7.5v-7.236H262.261c0,5.679.251,11.341-.081,16.97-.259,4.388-1.31,8.723-1.882,13.1a79.765,79.765,0,0,0-.885,9.607c-.1,12.313-.041,24.624-.041,36.938v2.75c5.65,0,11.078.1,16.492-.111a3.324,3.324,0,0,0,2.264-2.37,3.539,3.539,0,0,0-2.071-2.591c-3.051-1.027-6.225-1.7-9.369-2.437-2.454-.573-3.547-2.052-3.541-4.558.033-10.892,0-21.785.041-32.676a4.64,4.64,0,0,1,.641-2.687c3.8-4.829,4.457-10.673,5.479-16.4.262-1.466.409-2.952.644-4.692l7.485.748c-.973,7.859-1.865,15.494-5.775,22.4a5.714,5.714,0,0,0-.885,2.583c-.063,9.154-.038,18.31-.03,27.466a9.669,9.669,0,0,0,.128,1.06q3.2.788,6.394,1.577c5.756,1.423,9.214,5.992,8.56,11.306-.665,5.408-4.989,8.964-10.96,8.979-5.761.015-11.522,0-17.284,0-4.832,0-5.745-.919-5.791-5.818,0-.47,0-.939,0-1.759-3.048,0-6.029-.2-8.975.038-8.524.7-14.352-4.966-13.833-13.9.383-6.608.3-13.264.024-19.884a131.846,131.846,0,0,1,2.569-29.585,71.177,71.177,0,0,0,.723-12.726c.009-3.377-.33-3.5-3.729-3.5h-3.2v7.387h-7.614v-7.255h-7.53v7.292h-7.615v-7.424c-2.341,0-4.514.015-6.687,0-3.4-.028-4.739-1.336-4.743-4.727-.014-13.97-.032-27.94.03-41.91a2.821,2.821,0,0,0-1.829-3.083c-3.136-1.411-6.183-3.021-9.562-4.7.133,3.934-.26,7.377,1.349,10.92,3.495,7.7,4.37,16.074,5.25,24.4.215,2.039.166,4.119.525,6.127,1.911,10.684-1.211,20.654-4.481,30.524a32.085,32.085,0,0,0-.9,17.961c3.205,13.975,5.789,28.093,8.536,42.171.286,1.471.765,1.956,2.257,1.916,3.786-.1,7.576-.051,11.364-.024,1.324.009,2.483-.289,2.533-1.809.056-1.676-1.153-2.024-2.58-1.995q-2.366.048-4.735-.006a3.757,3.757,0,0,1-3.949-3.354q-3.785-20.583-7.5-41.179a4.471,4.471,0,0,1,.125-2.1c2.022-6.208,4.1-12.4,6.256-18.889l7.186,2.316c-1.312,4-2.362,7.952-3.908,11.7a20.974,20.974,0,0,0-.939,12.849c2.064,9.871,3.653,19.843,5.444,29.772a12.915,12.915,0,0,0,.406,1.322c.935,0,1.865-.04,2.792.006a9.465,9.465,0,0,1,9.043,9.441,9.353,9.353,0,0,1-9.019,9.439c-5.758.145-11.522.056-17.284.032a3.792,3.792,0,0,1-3.977-3.33c-.417-1.907-.785-3.825-1.247-6.1-.651.712-1.1,1.19-1.535,1.68a11.142,11.142,0,0,1-8.532,3.957q-7.339.062-14.68,0c-2.917-.025-4.285-1.452-4.329-4.418-.036-2.447-.147-4.9.014-7.339.9-13.541-1.92-26.5-5.988-39.276-.47-1.476-1.071-2.91-1.611-4.363v-10.419c5.826-4.678,8.36-11.208,10.28-18.117a130.226,130.226,0,0,0,4.9-34.079c.066-9.129.9-18.13,6.018-26.209-2.273-1.147-4.46-2.228-6.626-3.349-3.806-1.97-4.219-4.227-1.389-7.461q11.769-13.45,23.516-26.92a8.083,8.083,0,0,0,1.571-2.832,11.408,11.408,0,0,1,11.255-8.421c3.63-.032,7.265-.113,10.889.037,1.936.08,2.934-.447,3.559-2.4a56.67,56.67,0,0,1,3.487-8.512c1.884-3.686,4.617-6.612,8.855-7.63a13.192,13.192,0,0,1,14.443,5.261c2.634,3.542,4.281,7.813,6.424,11.729a8.014,8.014,0,0,0,1.431,1.505c.478-.507,1.167-.933,1.4-1.534.869-2.281,1.4-4.706,2.442-6.9.544-1.145,1.8-2.6,2.879-2.731,4.763-.586,9.44-.32,13.4,3.057a27.329,27.329,0,0,1,8.41,13.452,22.732,22.732,0,0,0,5.573,9.407c.6.63,1.133,1.316,1.725,1.951,6.7,7.172,13.666,14.047,22.584,18.481,9.71,4.826,14.07,3.417,19.21-6.066,4.052-7.475,6.4-15.57,8.481-23.755.514-2.02,1.019-4.043,1.548-6.144l7.768,1.746c-2.538,8.105-4.783,15.967-7.479,23.67a42.067,42.067,0,0,1-9.6,16.137c-3.763,3.781-8.223,5.44-13.557,4.414-1.362-.263-2.728-.5-4.158-.767v23.486c1.136-.16,2.149-.242,3.135-.45,9.842-2.077,17.229-7.908,23.339-15.541,9.753-12.181,15.183-26.431,19.3-41.256,1.364-4.905,2.4-9.9,3.618-14.986l7.49,1.215c-1.373,5.8-2.5,11.362-4.016,16.82-4.389,15.842-10.446,30.93-21.02,43.8-7.368,8.967-16.375,15.466-28.058,17.568-2.661.479-5.381.628-8.125.935,3.332,5.855,11.112,13.226,17.021,16.179,9.111,4.556,14.7,3.09,20.361-5.366,4.516-6.748,7.467-14.229,9.892-21.9,9.359-29.62,13.651-60.2,17.147-90.937.274-2.4-.231-4.095-2.709-5.352-.646,3.823-3.367,4.99-6.7,5.567-2.554.444-5.064,1.178-7.57,1.865-3.427.938-6.877,2.376-9.781-1.461-.52,1.787-.238,2.518,1.375,2.8a3.326,3.326,0,0,1,2.99,3.691c-.414,3.962-1.133,7.892-1.757,12.029-2.671-.5-4.96-.924-7.442-1.385.208-1.279.337-2.363.566-3.425.516-2.389,1.075-4.7-1.543-6.414a4.815,4.815,0,0,1-1.391-2.42c-1.187-3.43-.7-6.853.277-10.235.785-2.724,2.384-3.716,5.166-3.179,1.154.223,2.535.33,3.358,1.025,3.206,2.709,6.525,1.761,9.93.726a35.22,35.22,0,0,0,3.644-.98,4.559,4.559,0,0,0,2.217-1.756c2.5-4.857,5.843-8.75,11.2-10.536h18.943c1.939,1.333,2.5,3.173,2.409,5.49-.152,3.939-.039,7.888-.042,11.834,0,4.252-1.082,5.356-5.248,5.412-.619.008-1.238.062-1.487.075-.995,3.756-1.9,7.315-2.9,10.848a13.869,13.869,0,0,1-1.269,2.427l-6.027-3.739c-.692,4.967-1.293,9.678-2.012,14.371-3.841,25.1-7.84,50.184-17.107,74a86.409,86.409,0,0,1-9.063,17.309c-6.915,10.117-15.3,12.146-26.62,7.374-6.687-2.82-12.112-7.352-16.851-12.727-11.222-12.725-18.338-27.7-23.056-43.8-2.318-7.909-3.583-16.126-5.37-24.193a5.636,5.636,0,0,0-1.081-2.528,19.16,19.16,0,0,1-3.918-7.419,45.824,45.824,0,0,0-3.94-8.534,11.04,11.04,0,0,0-3.443-3.49c-2.846-1.908-4.132-1.359-5.21,1.855q-.825,2.465-1.678,4.921c-1.007,2.909-1.9,3.541-5.036,3.557-1.815.009-3.63.013-5.445,0-3.061-.023-3.937-.857-4.889-3.716a82.1,82.1,0,0,0-3.639-9.2,13.927,13.927,0,0,0-3.156-4.083c-3.293-3.046-7.077-2.6-9.331,1.264a75.294,75.294,0,0,0-3.616,8.191c-.655,1.516-1.216,3.08-1.984,4.536a5.386,5.386,0,0,1-5.213,3.021c-4.655-.058-9.317-.146-13.963.067a6.713,6.713,0,0,0-3.8,1.8c-.873.793-.7,1.947.982,1.909.552-.012,1.105,0,1.657,0H263v7.5H251.977v18.975h18.635v7.527H251.945v18.921H272.7c-.12-2.374-.234-4.622-.361-7.146l7.41-.566a245.868,245.868,0,0,1,.5,40.669l13.291-9.442c1.36,1.912,2.7,3.718,3.926,5.6.184.284-.2.938-.323,1.42Zm-117.978,77.7a3.553,3.553,0,0,0-.008-.795c-1.624-8.11-2.953-16.3-4.982-24.3a35.787,35.787,0,0,1,.713-21.446c3.277-9.344,6.2-18.878,4.383-29.087-.565-3.173-.544-6.445-.987-9.645-.994-7.178-1.87-14.394-5.556-20.876a6.61,6.61,0,0,1-.546-2.963c-.074-2.453-.024-4.911-.024-7.366a7.857,7.857,0,0,0-1.9,3.863c-.718,5.216-1.677,10.442-1.811,15.684a137.647,137.647,0,0,1-4.863,34.32c-2.062,7.254-3.914,14.686-9.848,20.088a2.008,2.008,0,0,0-.495,1.477c.207,2.331.163,4.763.85,6.958,4.521,14.459,7.765,29.086,6.7,44.38-.064.912-.008,1.833-.008,2.886,4.066,0,7.842.087,11.611-.034a3.64,3.64,0,0,0,3.525-3.74,3.737,3.737,0,0,0-3.541-3.74c-1.017-.1-2.049-.027-3.074-.039-3.382-.04-4.546-1.329-4.766-4.742-.392-6.052-.652-12.135-1.518-18.127-.659-4.564-.871-9.539-5.2-12.728a2.091,2.091,0,0,1-.7-1.458c-.062-3.072-.085-6.147.019-9.217a3.024,3.024,0,0,1,1-1.821c2.634-2.471,5.335-4.868,8.088-7.359l5.221,4.795c-1.957,2.059-3.7,3.985-5.552,5.81-1.43,1.413-1.991,4.183-.783,5.7,3,3.776,4.359,8.226,5.083,12.825.965,6.132,1.534,12.327,2.262,18.4Zm19.618-70.278h72.921c.338-2.475.662-4.849,1-7.325h-73.92Zm52.677,79.655c.688-4.672.688-4.673-3.327-6.014-1.493-.5-2.977-1.03-4.484-1.484a4.225,4.225,0,0,1-3.312-4.536c.04-9.62,0-19.24.048-28.858a4.8,4.8,0,0,1,.742-2.883c2.769-3.264,3.974-7.173,4.674-11.213.959-5.537,1.583-11.133,2.367-16.828h-8.091c-.368,6.281-.211,12.47-1.207,18.467-1.423,8.563-2.677,17.056-2.363,25.781.278,7.717.043,15.453.068,23.18.009,2.566,1.2,4.256,3.386,4.344C243.874,1464.608,247.722,1464.5,251.535,1464.5ZM179.39,1329.4l31.918,15.931.327-.454c-5.966-10.6-11.93-21.2-18.039-32.05Zm64.659-8.943V1301.8H225.4v18.649Zm.064,7.851h-18.65v18.648h18.65ZM217.7,1369.762a57.171,57.171,0,0,1,.07-7.958c.543-3.746-1-5.6-4.341-7.023-4.9-2.077-9.577-4.662-14.477-7.093v22.075Zm34.2-.069h21.19v-14.91H251.9Zm28.886-58.425c.05,8,11.633,37.562,16.472,41.9,0-7.484-.375-14.91.128-22.275.354-5.19-.979-8.488-5.7-11.1C287.705,1317.589,284.4,1314.162,280.786,1311.268Zm-63.179-9.462H196.1c3.462,6.143,6.764,12.029,10.115,17.887a1.786,1.786,0,0,0,1.241.822c3.355.067,6.712.037,10.15.037Zm26.485,67.9V1354.8H225.441v14.908Zm-77.134-46.577a30.352,30.352,0,0,1,3.344,1.738c1.54,1.063,2.494.734,3.674-.7,4.041-4.924,8.245-9.715,12.386-14.558,3.552-4.155,3.552-4.156.238-8.913Zm88.029,78.941a111.726,111.726,0,0,1-2.27,11.06c-1.115,3.648-2.9,7.09-4.325,10.647a6.28,6.28,0,0,0-.369,2.268c-.027,7.17-.016,14.339-.016,21.509,0,3.34.181,3.522,4.16,3.745C250.242,1434.669,253.345,1418.363,254.987,1402.073Zm112.938-157.029c3.631,3.534,5.781,9.516,12.513,6.975v-6.975Zm-150.38,94.864v-11.579h-6.516C213.2,1332.181,215.225,1335.787,217.545,1339.908Z" transform="translate(-145.712 -1237.208)" fill="#fff"/>
      <path id="Path_271" data-name="Path 271" d="M350.274,1426.7h7.581v7.285h-7.494c0-2.41,0-4.887,0-7.363Z" transform="translate(-198.851 -1286.413)" fill="#fff"/>
    </g>
    <circle id="Ellipse_33" data-name="Ellipse 33" cx="12.458" cy="12.458" r="12.458" transform="translate(140.283 13.254)" fill="none" stroke="#fff" stroke-miterlimit="10" stroke-width="6"/>
    <path id="Path_272" data-name="Path 272" d="M368.744,1210.809c0,14.2-25.712,58.385-25.712,58.385s-25.712-44.185-25.712-58.385a25.712,25.712,0,1,1,51.424,0Z" transform="translate(-190.291 -1185.097)" fill="none" stroke="#fff" stroke-miterlimit="10" stroke-width="6"/>
  </g>
</svg>
