<svg xmlns="http://www.w3.org/2000/svg" width="32.292" height="32.289" viewBox="0 0 32.292 32.289">
  <g transform="translate(0 0)">
    <path d="M241.747-1305.013c-.021.069-.048.137-.062.207a3.164,3.164,0,0,1-4.469,2.234.537.537,0,0,0-.494-.008,4.017,4.017,0,0,1-3.329-.069.513.513,0,0,0-.544.011,2.646,2.646,0,0,1-1.818.344.432.432,0,0,0-.458.175c-.783.933-1.582,1.854-2.364,2.788a.742.742,0,0,0-.154.418c-.019.45-.007.9-.007,1.347.644.223.716.316.707,1a13.132,13.132,0,0,1-.061,1.728,3.119,3.119,0,0,1-3.305,2.616,3.163,3.163,0,0,1-2.933-3.042c-.013-.483,0-.967,0-1.45,0-.53.157-.717.706-.82,0-.516.011-1.039-.009-1.561a.631.631,0,0,0-.188-.313q-3.2-3.753-6.407-7.5a10.527,10.527,0,0,1-2.667-7.248,10.552,10.552,0,0,1,8.682-10.17c.359-.064.72-.119,1.08-.178h3.91a1.392,1.392,0,0,0,.208.053,10.492,10.492,0,0,1,6.522,3.091c.409.407.47.77.187,1.063-.3.313-.656.258-1.082-.176a9.257,9.257,0,0,0-2.855-1.981c-.136-.061-.276-.112-.5-.2a6.613,6.613,0,0,1,1.751,5,41.978,41.978,0,0,1-1.288,9.4c-.021.083-.032.169-.05.262a4.038,4.038,0,0,1,.628-.111.471.471,0,0,0,.458-.29,3.92,3.92,0,0,1,2.477-1.953,12.318,12.318,0,0,1,1.42-.216c.019-.049.055-.136.087-.225a9.141,9.141,0,0,0,.437-4.589c-.089-.562.075-.887.492-.958s.67.2.757.76a10.422,10.422,0,0,1-.136,3.974c-.107.465-.254.921-.386,1.391a4.012,4.012,0,0,1,1.713,1.324.731.731,0,0,0,.557.33,3.059,3.059,0,0,1,2.525,1.885,6.817,6.817,0,0,1,.263.835Zm-15.486-18.175v17.6h2.106c.039-.1.079-.2.112-.3a38.47,38.47,0,0,0,2.046-12.371,4.819,4.819,0,0,0-1.877-3.918A4.677,4.677,0,0,0,226.261-1323.188Zm-1.3,17.6v-17.6c-.121.019-.224.031-.324.053a4.917,4.917,0,0,0-3.946,4.876,37.247,37.247,0,0,0,.964,8.494c.332,1.406.752,2.791,1.13,4.176Zm-3.458.01c-.035-.124-.054-.205-.08-.284a39.224,39.224,0,0,1-1.974-11.438,12.536,12.536,0,0,1,.143-2.349,5.792,5.792,0,0,1,1.593-2.985c-.19.072-.3.108-.4.151a9.271,9.271,0,0,0-4.019,13.771c.74,1.078,1.659,2.033,2.5,3.039a.317.317,0,0,0,.216.091C220.146-1305.577,220.807-1305.58,221.5-1305.58Zm10.041-1.274a1.664,1.664,0,0,0-1.71,1.125,1.674,1.674,0,0,0,.645,1.919,1.655,1.655,0,0,0,2.042-.125c.412-.345.575-.351,1.037-.059a2.725,2.725,0,0,0,2.872.151,1,1,0,0,1,1.18.043,1.821,1.821,0,0,0,2.173-.15,1.885,1.885,0,0,0,.589-2.1,1.825,1.825,0,0,0-1.777-1.262,1.022,1.022,0,0,1-1.056-.589,2.677,2.677,0,0,0-2.676-1.317,2.748,2.748,0,0,0-2.378,1.766C232.241-1306.892,232.149-1306.823,231.543-1306.854Zm-3.018,2.56h-8.071c.056.072.085.114.118.152q1.709,2,3.424,3.995a.44.44,0,0,0,.3.112q1.323.013,2.647,0a.4.4,0,0,0,.275-.1c.79-.912,1.571-1.833,2.312-2.7Zm-4.813,8.064c0,.327-.016.64,0,.951a1.818,1.818,0,0,0,1.05,1.6,1.772,1.772,0,0,0,1.909-.141,2.2,2.2,0,0,0,.772-2.415Zm.722-1.3h2.326v-1.223h-2.326Z" transform="translate(-209.455 1324.5)" fill="#fff"/>
    <path d="M167.17-1061.962a3.755,3.755,0,0,1,2.971,1.486.622.622,0,0,0,.371.216,2.9,2.9,0,0,1,2.563,2.915,2.84,2.84,0,0,1-2.708,2.791,6.692,6.692,0,0,1-1.377-.248.809.809,0,0,0-.4-.008,3.674,3.674,0,0,1-2.966-.07.462.462,0,0,0-.461.02,2.538,2.538,0,0,1-2.846-.21,2.5,2.5,0,0,1-1.01-2.7,2.472,2.472,0,0,1,1.988-2,1.219,1.219,0,0,0,.837-.577A3.632,3.632,0,0,1,167.17-1061.962Zm-4.678,4.866a1.336,1.336,0,0,0,.783,1.148,1.339,1.339,0,0,0,1.5-.169c.475-.367.569-.369,1.087-.059a2.35,2.35,0,0,0,2.483.065.828.828,0,0,1,.984.044,1.558,1.558,0,0,0,1.924-.126,1.6,1.6,0,0,0,.446-1.776,1.565,1.565,0,0,0-1.51-1.029.823.823,0,0,1-.874-.4,2.317,2.317,0,0,0-2.311-1.281,2.352,2.352,0,0,0-2.138,1.6.669.669,0,0,1-.829.491A1.427,1.427,0,0,0,162.492-1057.1Z" transform="translate(-161.23 1084.038)" fill="#fff"/>
    <path d="M465.907-1259.378a.607.607,0,0,1,.592.642.622.622,0,0,1-.634.609.642.642,0,0,1-.615-.666A.624.624,0,0,1,465.907-1259.378Z" transform="translate(-439.685 1264.854)" fill="#fff"/>
  </g>
</svg>
