<svg xmlns="http://www.w3.org/2000/svg" width="61.488" height="55.089" viewBox="0 0 61.488 55.089">
  <path d="M1354.635,1204.368a7.6,7.6,0,0,1-.865.7q-6.829,4.068-13.677,8.1a1.132,1.132,0,0,0-.664,1.137c.035,2.73.044,5.46.007,8.19a3.69,3.69,0,0,1-4.755,3.586,3.543,3.543,0,0,1-2.573-3.292c-.071-2.306-.033-4.615-.047-6.923,0-.752.217-1.641-.109-2.217s-1.2-.848-1.845-1.231q-6.234-3.7-12.479-7.387a1.334,1.334,0,0,1-.768-1.338c.035-.708.007-1.42.008-2.13,0-1.316.307-1.553,1.615-1.286q6.581,1.34,13.163,2.67c.1.021.208.038.357.066.02-.214.049-.383.05-.552.006-2.153.023-4.306-.007-6.459a1.206,1.206,0,0,0-.4-.812c-.859-.7-1.759-1.351-2.657-2a1.61,1.61,0,0,1-.74-1.468c.028-.642.031-1.288,0-1.93a1.436,1.436,0,0,1,.539-1.279h.666a31.985,31.985,0,0,1,3.226.992,7.562,7.562,0,0,0,6.216-.029,7.21,7.21,0,0,1,.7-.194c.794-.252,1.586-.512,2.379-.768h.8a7.354,7.354,0,0,1,.456,1.375,15.449,15.449,0,0,1,.028,1.862,1.637,1.637,0,0,1-.714,1.422c-.914.667-1.831,1.332-2.712,2.04a1.111,1.111,0,0,0-.373.752c-.028,2.2-.016,4.394-.012,6.591,0,.145.027.291.043.456.126-.02.213-.03.3-.047q6.613-1.341,13.224-2.691a1.453,1.453,0,0,1,1.619.365Zm-24.6-13.854a1.512,1.512,0,0,0,.743,1.907c.76.45,1.425,1.057,2.151,1.566a1.811,1.811,0,0,1,.833,1.628c-.025,2.708-.011,5.416-.017,8.124,0,1.025-.367,1.312-1.372,1.106q-5.342-1.091-10.685-2.179c-1.014-.206-2.031-.4-3.047-.6-.237,1.406-.225,1.437.873,2.088,4.368,2.59,8.729,5.191,13.112,7.755a2.023,2.023,0,0,1,1.144,1.979c-.047,2.685-.025,5.371-.018,8.057a4.954,4.954,0,0,0,.113,1.121,1.862,1.862,0,0,0,1.638,1.44,1.788,1.788,0,0,0,1.961-1.056,3.766,3.766,0,0,0,.26-1.416q.033-4.128,0-8.257a1.8,1.8,0,0,1,.959-1.742c4.451-2.623,8.885-5.274,13.328-7.912,1.023-.608,1.107-.792.814-2.026a3.229,3.229,0,0,0-.325.033q-6.648,1.343-13.3,2.69c-1.073.218-1.458-.07-1.463-1.164-.012-2.708,0-5.416-.012-8.124a1.678,1.678,0,0,1,.754-1.466c.792-.57,1.528-1.229,2.36-1.732a1.451,1.451,0,0,0,.648-1.818c-1.651.464-3.261.955-4.893,1.354a3.647,3.647,0,0,1-1.678.006C1333.286,1191.476,1331.678,1190.98,1330.037,1190.514Z" transform="translate(-1293.147 -1188.512)" fill="#fff"/>
  <path d="M1177.377,1330.554c0,.743,0,1.424,0,2.1,0,1.621.01,3.242-.018,4.862a1,1,0,0,0,.477.935c.888.628,1.741,1.3,2.621,1.943a1.62,1.62,0,0,1,.73,1.474c-.029.709.005,1.421-.014,2.131-.023.866-.475,1.2-1.31.962-1.856-.522-3.7-1.075-5.568-1.571a2.469,2.469,0,0,0-1.214.008c-1.864.494-3.713,1.041-5.57,1.559-.887.247-1.3-.073-1.33-1,0-.022,0-.044,0-.067.031-3.529-.457-2.646,2.334-4.643a3.058,3.058,0,0,0,1.506-3.038c-.133-1.853-.033-3.724-.033-5.659l-6.23,1.253c-2.565.517-5.128,1.04-7.694,1.547-.881.174-1.255-.144-1.263-1.032-.007-.822.026-1.644-.011-2.464a1.286,1.286,0,0,1,.736-1.285c4.625-2.723,9.235-5.473,13.864-8.191a1.089,1.089,0,0,0,.61-1.1c-.026-2.731-.038-5.462,0-8.193a3.69,3.69,0,0,1,4.75-3.6,3.527,3.527,0,0,1,2.578,3.288c.07,2.729.068,5.462.024,8.191a1.53,1.53,0,0,0,.879,1.559c4.484,2.614,8.935,5.284,13.415,7.9a1.589,1.589,0,0,1,.935,1.652c-.057.728,0,1.465-.014,2.2-.013.946-.365,1.249-1.29,1.064q-6.423-1.288-12.842-2.6C1178.109,1330.689,1177.787,1330.631,1177.377,1330.554Zm-20.862.927a4.915,4.915,0,0,0,.514-.045q6.615-1.339,13.229-2.684c1.032-.21,1.431.082,1.436,1.13.014,2.73,0,5.46.012,8.19a1.637,1.637,0,0,1-.721,1.417c-.79.574-1.53,1.224-2.359,1.732a1.474,1.474,0,0,0-.679,1.843c.23-.061.461-.117.69-.182,1.385-.393,2.76-.833,4.161-1.158a4.063,4.063,0,0,1,1.8.007c1.612.386,3.2.875,4.793,1.322a1.469,1.469,0,0,0-.709-1.871c-.757-.455-1.416-1.069-2.149-1.569a1.834,1.834,0,0,1-.866-1.676c.026-2.708.011-5.416.018-8.124,0-.982.376-1.283,1.333-1.088q5.376,1.091,10.751,2.186c1.008.2,2.019.4,3.02.594a1.634,1.634,0,0,0-.881-2.123c-4.306-2.475-8.54-5.075-12.844-7.554a2.458,2.458,0,0,1-1.412-2.5c.079-2.55.032-5.1.025-7.657a5.232,5.232,0,0,0-.1-1.122,1.879,1.879,0,0,0-1.873-1.495,1.967,1.967,0,0,0-1.994,2.115c-.021,2.8-.042,5.594.011,8.39a2.167,2.167,0,0,1-1.214,2.145c-4.517,2.642-9.008,5.328-13.5,8.011a1.008,1.008,0,0,0-.47.548A6.436,6.436,0,0,0,1156.515,1331.481Z" transform="translate(-1154.787 -1289.954)" fill="#fff"/>
</svg>
