<svg xmlns="http://www.w3.org/2000/svg" width="31.001" height="30.998" viewBox="0 0 31.001 30.998">
  <g transform="translate(100.174 -1059.77)">
    <path d="M3243.8,1209.953c.123-.169.21-.393.373-.5,1.257-.814,2.527-1.61,3.8-2.4a.628.628,0,0,1,.884.155.615.615,0,0,1-.246.88q-1.884,1.2-3.778,2.379A.66.66,0,0,1,3243.8,1209.953Z" transform="translate(-3337.888 -130.363)" fill="#fff"/>
    <path d="M3172.09,1004a.821.821,0,0,1,.429.825c-.017,1.22-.006,2.441-.006,3.662v.358h1.53c.424,0,.847,0,1.271,0,.507,0,.742.225.753.732.01.454,0,.908,0,1.362v.327c.592,0,1.154,0,1.716,0,.579,0,.781.2.782.783,0,.533,0,1.066,0,1.639.378,0,.738,0,1.1,0a.629.629,0,0,1,.719.724c0,1.584,0,3.167,0,4.751a.429.429,0,0,0,.237.432c.843.5,1.675,1.007,2.51,1.515.471.286.547.481.393,1q-1.5,5.031-3,10.059c-.077.256-.052.37.219.487a3.325,3.325,0,0,0,3.7-.508c.264-.219.517-.452.793-.654a.586.586,0,0,1,.819.077.575.575,0,0,1-.032.82,6.645,6.645,0,0,1-2.311,1.564,4.566,4.566,0,0,1-3.388-.134c-.5-.211-1-.426-1.513-.594a3.316,3.316,0,0,0-2.6.292,15.163,15.163,0,0,1-1.695.79,4.453,4.453,0,0,1-3.491-.243c-.364-.172-.735-.331-1.088-.524a3.661,3.661,0,0,0-3.559.02,13.946,13.946,0,0,1-1.539.695,4.964,4.964,0,0,1-3.643-.323,8.3,8.3,0,0,0-1.351-.505,3.442,3.442,0,0,0-2.721.721c-.26.172-.5.372-.746.567-.51.41-.8.376-1.169-.146v-.363c.363-.328.7-.686,1.093-.979a4.657,4.657,0,0,1,3.313-1.068c.436.042.866.136,1.313.208-.021-.08-.041-.166-.066-.25q-1.481-4.989-2.964-9.977c-.167-.561-.1-.743.4-1.048.827-.5,1.651-1.008,2.484-1.5a.43.43,0,0,0,.24-.431c-.008-1.584-.006-3.168,0-4.751a.63.63,0,0,1,.718-.726c.359,0,.718,0,1.1,0,0-.571,0-1.1,0-1.637,0-.58.2-.783.781-.784.562,0,1.125,0,1.7,0,.006-.13.014-.228.014-.326,0-.454-.007-.908,0-1.362.011-.508.246-.73.752-.733.4,0,.807,0,1.21,0h1.591v-.358c0-1.221.01-2.442-.007-3.662a.82.82,0,0,1,.429-.825Zm10.177,18.016-10.966-6.643v17.141a.483.483,0,0,0,0,.18c.035.08.084.2.15.215a12.488,12.488,0,0,0,1.6.385,3,3,0,0,0,1.763-.434,7.139,7.139,0,0,1,2.49-.964c.653-.066,1.318-.013,2.024-.013Zm-23.14,0c.247.831.489,1.64.729,2.448q1.248,4.207,2.493,8.416c.058.2.14.329.358.329a5.03,5.03,0,0,0,1.313-.025,9.65,9.65,0,0,0,1.8-.748,4.821,4.821,0,0,1,3.127-.519c.381.067.752.183,1.119.275v-16.8Zm4.936-9.534v1.185h13.27v-1.185Zm-1.828,6.224,6.245-3.784h-6.245Zm16.916-.005v-3.778h-6.236Zm-12.571-7.452h8.228v-1.173h-8.228Zm4.71-6.022h-1.182v3.6h1.182Z" transform="translate(-3255.373 55.77)" fill="#fff"/>
    <path d="M3417.9,1210.1c.014.554-.386.848-.781.712a1.686,1.686,0,0,1-.323-.16q-1.774-1.091-3.544-2.188a1.523,1.523,0,0,1-.309-.238.594.594,0,0,1-.056-.726.6.6,0,0,1,.691-.233,1.046,1.046,0,0,1,.218.1c1.243.764,2.489,1.523,3.721,2.3A1.778,1.778,0,0,1,3417.9,1210.1Z" transform="translate(-3494.09 -130.641)" fill="#fff"/>
    <path d="M3386.185,1191.609a.618.618,0,0,1-.606-.592.6.6,0,0,1,.608-.614.627.627,0,0,1,.594.608A.607.607,0,0,1,3386.185,1191.609Z" transform="translate(-3468.935 -115.079)" fill="#fff"/>
    <path d="M3323.627,1190.886a.6.6,0,0,1,.035-1.208.655.655,0,0,1,.594.611A.625.625,0,0,1,3323.627,1190.886Z" transform="translate(-3411.132 -114.409)" fill="#fff"/>
  </g>
</svg>
