<svg xmlns="http://www.w3.org/2000/svg" width="54.683" height="54.872" viewBox="0 0 54.683 54.872">
  <g id="Group_6" data-name="Group 6" transform="translate(0.007 -0.022)">
    <path id="Path_324" data-name="Path 324" d="M15.664,54.894a10.426,10.426,0,0,0-.938-.593,1.4,1.4,0,0,0-.6-.142c-.787-.035-1.574,0-2.344-.1a2.694,2.694,0,0,1-1.265-.5,16.942,16.942,0,0,1-6.174-9.623A1.334,1.334,0,0,1,5.97,42.379c1.539.371,3.069.778,4.6,1.185a.864.864,0,0,1,.69,1.044.874.874,0,0,1-1.123.619c-1.291-.327-2.565-.655-3.954-1,.177.5.327.955.5,1.4A15.309,15.309,0,0,0,11,51.772a2.19,2.19,0,0,0,1.742.628,2.66,2.66,0,0,1,.531,0,.809.809,0,0,0,1.017-.619,2.063,2.063,0,0,1,2.034-1.309c.663-.018,1.318-.018,1.981,0,.327.009.442-.115.433-.442-.009-.858-.018-1.716,0-2.574.009-.38-.142-.522-.5-.593-1.468-.265-2.937-.557-4.4-.849-.619-.124-.929-.531-.823-1.035.115-.522.5-.752,1.15-.637.557.1,1.114.212,1.707.327.062-.221.115-.425.168-.628a2.254,2.254,0,0,1,2.441-1.725,2.317,2.317,0,0,1,2.017,2.167c.053,1,.053,1.008,1.079,1.2.557.106,1.114.177,1.778.283V43.856c0-1.2.009-1.238-1.176-1.415-2.079-.3-4.166-.548-6.245-.823-2.273-.3-4.555-.593-6.828-.893-2.079-.274-4.166-.548-6.245-.814-.566-.071-1.132-.133-1.689-.23A1.406,1.406,0,0,1,.141,37.664c1.008-2.14,2-4.3,3.149-6.368a54.8,54.8,0,0,1,5.864-8.358c.274-.327.566-.61,1.044-.451a.865.865,0,0,1,.354,1.459c-.8,1.044-1.645,2.07-2.432,3.131A52.22,52.22,0,0,0,2.14,37.311c-.071.159-.133.327-.195.5a1.91,1.91,0,0,0-.044.248c12.666,1.654,25.323,3.3,38.069,4.962-.124-.787-.257-1.459-.345-2.132-.327-2.7-.725-5.4-.946-8.111-.23-2.768-.3-5.555-.433-8.332a2.12,2.12,0,0,1,.018-.531.806.806,0,0,1,.787-.743.772.772,0,0,1,.876.628,3.475,3.475,0,0,1,.08.743c.08,2.247.088,4.493.248,6.74a95.754,95.754,0,0,0,1.442,11.437c.142.716.15,1.459-.6,1.831a2.629,2.629,0,0,1-1.389.195c-2.813-.336-5.617-.716-8.42-1.079-.92-.124-1.831-.257-2.751-.38a1.913,1.913,0,0,0-.416.035c0,1.035-.009,2.052.009,3.06a.411.411,0,0,0,.265.318c1.035.142,2.07.248,3.122.371a6.573,6.573,0,0,1,.186-.77,2.235,2.235,0,0,1,2.5-1.468,2.176,2.176,0,0,1,1.84,2.114c.009.389.1.575.531.6,1.106.062,2.2.2,3.3.265,3.113.159,6.236.283,9.349.425.318.018.637,0,1.044,0Q45.489,28.678,40.757,9.263c-.035,0-.062.009-.1.009-.115,1.318-.257,2.636-.336,3.963-.133,2.388-.221,4.776-.336,7.156a.86.86,0,0,1-.884.938.831.831,0,0,1-.858-.946c.071-1.981.15-3.954.265-5.935.088-1.459.195-2.919.363-4.369.283-2.477.61-4.944.911-7.421.027-.186.027-.38.053-.655-.257.106-.433.177-.6.257A87.953,87.953,0,0,0,18.591,15.72c-1.875,1.672-3.618,3.494-5.422,5.245a2.563,2.563,0,0,1-.522.46.771.771,0,0,1-1.017-.186.8.8,0,0,1,0-1.123c.5-.575,1.035-1.132,1.574-1.681A78.321,78.321,0,0,1,22.9,10.024a1.01,1.01,0,0,0,.46-.938,15.852,15.852,0,0,1,.062-2.247,2.221,2.221,0,0,1,1.937-1.99A2.328,2.328,0,0,1,27.87,6.168c.044.08.08.159.159.3.221-.133.433-.257.637-.38A99.542,99.542,0,0,1,39.43.25a1.551,1.551,0,0,1,1.716.062,1.51,1.51,0,0,1,.5,1.681c-.15.663-.23,1.353-.327,2.043a1.235,1.235,0,0,0,.071.469q3.3,13.533,6.6,27.074,1.95,8.014,3.9,16.027c.106.451.265.7.77.619a3.15,3.15,0,0,1,.646,0,1.366,1.366,0,0,1,1.318,1.769c-.2.814-.416,1.619-.628,2.432a1.98,1.98,0,0,1-2.229,1.707c-2.264.009-4.537.009-6.8,0a1.814,1.814,0,0,0-1.521.451,1.871,1.871,0,0,1-.557.3Q29.263,54.9,15.664,54.894Zm4.847-7.607v2.37c.009.893-.1.814.787.814H33.4c1.07,0,1.106-.027.964-1.114a.455.455,0,0,0-.3-.318c-1.362-.159-2.724-.274-4.086-.451-2.309-.292-4.617-.61-6.926-.92C22.227,47.562,21.413,47.429,20.511,47.288ZM52.83,50.03c-.212-.027-.336-.044-.46-.053-1.477-.035-2.954-.062-4.44-.1-1.336-.035-2.671-.062-4.007-.142-2.432-.142-4.865-.327-7.3-.5-.38-.027-.628.027-.584.5.035.38-.088.761.566.752,1.778-.044,3.565-.018,5.351-.018a2.32,2.32,0,0,1,2.432,1.627.544.544,0,0,0,.407.283q3.529.027,7.058,0a.539.539,0,0,0,.407-.292C52.476,51.436,52.636,50.764,52.83,50.03Zm-23.572,2.2H16.407c-.327,0-.628.115-.575.46.035.2.327.389.531.548.08.062.239.018.371.018H41.845a1.052,1.052,0,0,0,.566-.088.712.712,0,0,0,.292-.54c-.009-.133-.257-.292-.433-.363a1.507,1.507,0,0,0-.531-.018Q35.49,52.223,29.258,52.232ZM25.119,42.91v2.485c0,.858,0,.84.814.982.354.062.442-.08.433-.4-.009-.619,0-1.247,0-1.866,0-1.123,0-1.123-1.1-1.265C25.252,42.839,25.234,42.856,25.119,42.91Zm0-34.513a5.054,5.054,0,0,0,1.008-.716.978.978,0,0,0,.15-.8.69.69,0,0,0-.619-.336.884.884,0,0,0-.522.557A6.773,6.773,0,0,0,25.119,8.4ZM18.724,45.183c-.018-.433.23-.929-.389-1.088a.458.458,0,0,0-.61.425C17.654,45.015,17.742,45.085,18.724,45.183Zm15.753,2.123a2.609,2.609,0,0,0-.4-.716.546.546,0,0,0-.522,0,2.206,2.206,0,0,0-.38.628C33.663,47.252,33.99,47.279,34.477,47.305Z" transform="translate(0 0)" fill="#fff"/>
    <path id="Path_325" data-name="Path 325" d="M33.185,21.3h-4.4c-.61,0-.973-.3-1-.8-.018-.522.354-.867.991-.867q4.392-.013,8.783,0c.637,0,1.017.345,1,.858-.018.5-.389.814-.991.814Z" transform="translate(-3.211 -2.264)" fill="#fff"/>
    <path id="Path_326" data-name="Path 326" d="M12.581,39.379c.911,0,1.813-.009,2.724,0,.628,0,1.026.327,1.053.831a.9.9,0,0,1-.991.9c-1.849.018-3.706.018-5.555,0-.637-.009-.982-.363-.973-.893s.371-.831,1.017-.84C10.759,39.371,11.67,39.379,12.581,39.379Z" transform="translate(-1.022 -4.545)" fill="#fff"/>
    <path id="Path_327" data-name="Path 327" d="M16.73,35.749c.283,0,.566-.018.849,0a.846.846,0,0,1,.849.8.754.754,0,0,1-.681.867,13.635,13.635,0,0,1-2.167,0A.752.752,0,0,1,14.9,36.5a.807.807,0,0,1,.823-.752C16.058,35.731,16.394,35.749,16.73,35.749Z" transform="translate(-1.721 -4.126)" fill="#fff"/>
    <path id="Path_328" data-name="Path 328" d="M35.019,30.857a7.827,7.827,0,0,1-.911-.009.816.816,0,0,1-.778-.814.743.743,0,0,1,.663-.84,12.44,12.44,0,0,1,2.07,0c.478.044.672.433.628.9a.791.791,0,0,1-.77.752A7.657,7.657,0,0,1,35.019,30.857Z" transform="translate(-3.85 -3.364)" fill="#fff"/>
    <path id="Path_329" data-name="Path 329" d="M32.968,16.671c-.265,0-.54.018-.8,0a.867.867,0,1,1-.009-1.734c.548-.027,1.106-.027,1.654,0a.864.864,0,0,1,.858.858.9.9,0,0,1-.849.876c-.274.027-.557,0-.849,0Z" transform="translate(-3.612 -1.72)" fill="#fff"/>
  </g>
</svg>
