<svg xmlns="http://www.w3.org/2000/svg" width="63.521" height="63.546" viewBox="0 0 63.521 63.546">
  <g id="Group_4" data-name="Group 4" transform="translate(0)">
    <path id="Path_281" data-name="Path 281" d="M2581.158,2080.957a2.814,2.814,0,0,0-.641-.534,10.239,10.239,0,1,1,7.611-.019,3.59,3.59,0,0,0-.712.528l.114.223h.673c3.032,0,6.063.01,9.094-.009a1.343,1.343,0,0,1,1.364.825q7.537,15.109,15.095,30.208c.552,1.1.123,1.77-1.131,1.77q-30.386,0-60.772,0c-1.246,0-1.677-.672-1.128-1.771q7.547-15.1,15.092-30.2a1.343,1.343,0,0,1,1.361-.829c4.376.017,8.752.009,13.128.009h.7Zm-2.891,21.343a4.44,4.44,0,0,1,.42-.59c2.545-2.555,5.1-5.1,7.641-7.66a1.9,1.9,0,0,1,1.469-.606c4.5.018,9.006.01,13.509.01h.73a1.879,1.879,0,0,0-.08-.292c-1.6-3.2-3.2-6.408-4.819-9.6a.849.849,0,0,0-.637-.343c-1.686-.028-3.372-.016-5.058-.016h-4.423c-.063.244-.121.447-.169.651-.507,2.179-1.02,4.357-1.514,6.539-.133.588-.423,1-1.058.994s-.926-.424-1.041-1.015c-.1-.522-.24-1.038-.36-1.557-.433-1.862-.865-3.724-1.293-5.565h-2.42c0,2.627-.011,5.208.009,7.788a1.747,1.747,0,0,1-.565,1.358c-1.567,1.542-3.114,3.1-4.667,4.659-.159.159-.31.328-.447.473Zm5.946-16.828h.124a2.8,2.8,0,0,0,.089-.267c.382-1.64.8-3.272,1.128-4.923a1.96,1.96,0,0,1,1.468-1.69,8.149,8.149,0,0,0,5.17-9.878,8.2,8.2,0,1,0-10.4,9.979,1.423,1.423,0,0,1,1.132,1.216c.078.5.229,1,.344,1.5Q2583.74,2083.436,2584.213,2085.472Zm-23.037,26.428c.968,0,1.778-.024,2.586.01a1.293,1.293,0,0,0,1.063-.43q3.558-3.6,7.146-7.162c.84-.84,1.247-.84,2.084,0q3.6,3.6,7.205,7.195c.157.157.364.363.555.371.969.038,1.94.017,3.031.017-.233-.25-.368-.4-.513-.55q-1.787-1.791-3.576-3.578c-.776-.777-.776-1.211,0-1.991,2.535-2.537,5.079-5.064,7.6-7.616a1.963,1.963,0,0,1,1.529-.62c4.5.019,9.007.01,13.512.008.221,0,.442-.019.725-.032-.253-.514-.5-.939-.675-1.39a.906.906,0,0,0-1-.64q-7.012.036-14.024,0a1.416,1.416,0,0,0-1.108.473q-4.058,4.094-8.145,8.157c-.815.815-1.242.821-2.04.024q-2.809-2.806-5.613-5.615c-.752-.754-.754-1.2-.009-1.946,1.733-1.738,3.479-3.463,5.193-5.221a1.491,1.491,0,0,0,.395-.927c.033-2.2.017-4.4.017-6.6v-.6h-2.049v.657c0,1.729.026,3.459-.021,5.187a1.834,1.834,0,0,1-.44,1.131c-1.583,1.646-3.209,3.25-4.832,4.857a1.048,1.048,0,0,1-1.719-.006c-1.033-1.02-2.063-2.042-3.077-3.081-.4-.408-.749-.863-1.182-1.367l-1.207,2.418a3.376,3.376,0,0,1,.558.379q3.61,3.59,7.2,7.2c.838.838.838,1.25,0,2.086l-8.6,8.6C2561.588,2111.458,2561.435,2111.627,2561.176,2111.9Zm26.2-4.1c.647,0,1.242-.032,1.833.01a.879.879,0,0,0,.951-.536c1.076-1.939,2.195-3.854,3.283-5.786.255-.454.543-.831,1.113-.821a1.226,1.226,0,0,1,1.063.8c.437.8.9,1.583,1.412,2.467.591-.619,1.113-1.181,1.653-1.726.8-.807,1.392-.752,2.017.18,1,1.488,2.03,2.956,2.963,4.483a1.717,1.717,0,0,0,1.783.951c1.24-.08,2.489-.021,3.785-.021a3.316,3.316,0,0,0-.115-.326c-1.248-2.5-2.507-4.989-3.735-7.5-.187-.382-.447-.378-.774-.378-4.738,0-9.477,0-14.215.02a1.469,1.469,0,0,0-.929.388c-2.133,2.092-4.238,4.213-6.35,6.326-.143.143-.277.3-.428.458,1.611,1.61,3.154,3.176,4.73,4.706a1.479,1.479,0,0,0,.929.387q11.173.032,22.347.015c.18,0,.361-.019.609-.033-.246-.5-.5-.925-.665-1.378a.936.936,0,0,0-1.06-.652q-10.725.031-21.45.014h-.747Zm-25.742-12.871c-2.818,5.641-5.632,11.269-8.481,16.97,1.595,0,3.066.023,4.535-.018a1.494,1.494,0,0,0,.931-.384q4.754-4.7,9.467-9.446c.128-.129.241-.275.313-.357Zm3.126-6.25,4.25,4.258c1.251-1.253,2.552-2.542,3.827-3.855a1.014,1.014,0,0,0,.169-.64c.015-1.366.007-2.732.007-4.1V2083.2c-1.787,0-3.472-.01-5.157.016a.718.718,0,0,0-.517.334C2566.454,2085.278,2565.593,2087.016,2564.761,2088.68Zm2.785,23.172h10.874l-5.427-5.443Zm29.315-4.066-2.326-4.064-2.32,4.064Zm4.984.014-2.39-3.58c-.427.469-.8.873-1.166,1.288-.077.088-.188.254-.156.315.354.652.731,1.293,1.116,1.93.029.047.159.045.242.045C2600.233,2107.8,2600.974,2107.8,2601.846,2107.8Z" transform="translate(-2550.471 -2050.404)" fill="#fff"/>
    <path id="Path_282" data-name="Path 282" d="M2558.637,2037.878c0-1,0-1.916,0-2.831.006-.889.362-1.261,1.226-1.267q1.856-.012,3.714,0c.832.006,1.2.381,1.206,1.224.009.934,0,1.869,0,2.873,1.561,0,3.071.04,4.577-.016a1.719,1.719,0,0,1,1.724.937c.487.825,1.043,1.611,1.593,2.4a1.2,1.2,0,0,1,.021,1.531c-.62.894-1.221,1.8-1.812,2.714a1.323,1.323,0,0,1-1.232.643c-1.6-.017-3.194-.006-4.831-.006v2.05h1.985c1.665,0,3.329-.012,4.994,0a1.03,1.03,0,0,1,.924,1.707c-.433.686-.919,1.337-1.329,2.035a.831.831,0,0,0,0,.709c.41.7.9,1.35,1.329,2.035a1.03,1.03,0,0,1-.928,1.7c-2.3.013-4.609,0-7.017,0v.69q0,4.065,0,8.131c0,1.121-.313,1.427-1.455,1.428s-2.262,0-3.394,0c-.952,0-1.3-.356-1.3-1.324,0-2.944,0-5.886,0-8.924H2558c-1.408,0-2.817-.012-4.225.006a1.318,1.318,0,0,1-1.235-.637q-.9-1.4-1.844-2.77a1.136,1.136,0,0,1,.013-1.418q.94-1.372,1.845-2.768a1.276,1.276,0,0,1,1.179-.617c1.6.014,3.2.005,4.853.005v-2.05h-.658c-2.07,0-4.141-.006-6.21,0a1.161,1.161,0,0,1-1.143-.546,1.1,1.1,0,0,1,.167-1.25c.444-.653.9-1.3,1.3-1.977a.769.769,0,0,0,0-.658c-.415-.7-.934-1.331-1.311-2.044a1.447,1.447,0,0,1-.117-1.16,1.383,1.383,0,0,1,1.034-.544c2.069-.051,4.14-.025,6.21-.025Zm-5.315,6.068a2.649,2.649,0,0,0,.321.076q7.681,0,15.363-.008a.808.808,0,0,0,.553-.3c1.239-1.678,1.224-1.677.079-3.388a.814.814,0,0,0-.78-.4q-7.458.014-14.916.009c-.153,0-.306.032-.642.07C2554.811,2041.336,2554.794,2042.634,2553.322,2043.946Zm16.7,6.255c-.211-.014-.3-.024-.38-.024-5.037,0-10.073.005-15.11-.012a.826.826,0,0,0-.8.491c-.314.529-.912,1.042-.914,1.563s.607,1.027.9,1.566a.9.9,0,0,0,.919.5c4.909-.016,9.818-.01,14.727-.012.183,0,.366-.015.652-.028-.315-.475-.57-.886-.852-1.277a1.141,1.141,0,0,1-.009-1.473C2569.444,2051.1,2569.7,2050.691,2570.023,2050.2Zm-9.324,14.27h1.994v-8.1H2560.7Zm.019-26.631h1.975v-1.963h-1.975Zm1.984,10.259v-1.983h-1.971v1.983Z" transform="translate(-2550.441 -2033.775)" fill="#fff"/>
    <path id="Path_283" data-name="Path 283" d="M2645.33,2077.64h-1.946c-.449-2.605-1.644-3.8-4.113-4.093V2071.6A5.965,5.965,0,0,1,2645.33,2077.64Z" transform="translate(-2605.414 -2057.173)" fill="#fff"/>
    <path id="Path_284" data-name="Path 284" d="M2649.012,2092.8l-1.986,2.516-1.263-1.678,1.331-1.674Z" transform="translate(-2609.432 -2069.788)" fill="#fff"/>
    <path id="Path_285" data-name="Path 285" d="M2584.791,2054.695h-1.966v-1.978h1.966Z" transform="translate(-2570.482 -2045.497)" fill="#fff"/>
    <path id="Path_286" data-name="Path 286" d="M2595.547,2054.695h-1.966v-1.978h1.966Z" transform="translate(-2577.139 -2045.497)" fill="#fff"/>
    <path id="Path_287" data-name="Path 287" d="M2563.264,2081.6h-1.947v-1.993h1.947Z" transform="translate(-2557.172 -2062.14)" fill="#fff"/>
    <path id="Path_288" data-name="Path 288" d="M2572.025,2079.562H2574v1.989h-1.978Z" transform="translate(-2563.799 -2062.111)" fill="#fff"/>
  </g>
</svg>
