<svg xmlns="http://www.w3.org/2000/svg" width="21.351" height="21.351" viewBox="0 0 21.351 21.351">
  <path id="Icon_simple-instagram" data-name="Icon simple-instagram" d="M10.676,0c-2.9,0-3.262.013-4.4.064a7.872,7.872,0,0,0-2.591.5A5.228,5.228,0,0,0,1.792,1.792,5.209,5.209,0,0,0,.56,3.683a7.849,7.849,0,0,0-.5,2.591C.011,7.413,0,7.775,0,10.675s.013,3.262.064,4.4a7.877,7.877,0,0,0,.5,2.591,5.235,5.235,0,0,0,1.231,1.891,5.22,5.22,0,0,0,1.891,1.231,7.882,7.882,0,0,0,2.591.5c1.139.053,1.5.064,4.4.064s3.262-.013,4.4-.064a7.9,7.9,0,0,0,2.591-.5,5.456,5.456,0,0,0,3.123-3.123,7.877,7.877,0,0,0,.5-2.591c.053-1.139.064-1.5.064-4.4s-.013-3.262-.064-4.4a7.9,7.9,0,0,0-.5-2.591,5.24,5.24,0,0,0-1.231-1.891A5.2,5.2,0,0,0,17.668.56a7.854,7.854,0,0,0-2.591-.5C13.938.011,13.576,0,10.676,0Zm0,1.922c2.849,0,3.189.014,4.315.063a5.882,5.882,0,0,1,1.981.369A3.513,3.513,0,0,1,19,4.38a5.894,5.894,0,0,1,.367,1.981c.051,1.126.062,1.464.062,4.315s-.013,3.189-.066,4.315a6.008,6.008,0,0,1-.375,1.981,3.39,3.39,0,0,1-.8,1.229,3.331,3.331,0,0,1-1.228.8,5.938,5.938,0,0,1-1.988.367c-1.133.051-1.467.062-4.323.062s-3.19-.013-4.323-.066a6.053,6.053,0,0,1-1.989-.375,3.306,3.306,0,0,1-1.227-.8,3.242,3.242,0,0,1-.8-1.228,6.058,6.058,0,0,1-.374-1.988c-.04-1.121-.054-1.467-.054-4.309s.014-3.19.054-4.324A6.052,6.052,0,0,1,2.309,4.35a3.165,3.165,0,0,1,.8-1.229,3.158,3.158,0,0,1,1.227-.8,5.909,5.909,0,0,1,1.976-.375c1.134-.04,1.468-.053,4.323-.053l.04.027Zm0,3.272a5.482,5.482,0,1,0,5.482,5.482A5.482,5.482,0,0,0,10.676,5.194Zm0,9.04a3.558,3.558,0,1,1,3.559-3.558A3.558,3.558,0,0,1,10.676,14.234Zm6.98-9.257A1.281,1.281,0,1,1,16.374,3.7,1.282,1.282,0,0,1,17.656,4.977Z" fill="#fff"/>
</svg>
