<svg xmlns="http://www.w3.org/2000/svg" width="30.289" height="30.221" viewBox="0 0 30.289 30.221">
  <path d="M1716.815,937.724a7.5,7.5,0,0,1-.9,2.1,16.746,16.746,0,0,1-2.423,2.972c-.334.335-.679.66-1.007,1a.354.354,0,0,0-.1.274c.346,1.178.706,2.353,1.063,3.528,0,.008.013.015.027.03a1.453,1.453,0,0,1,1.207-.2,1.391,1.391,0,0,1,.691,2.232c-.209.248-.45.47-.679.7-.375.378-.377.377-.137.919a1.469,1.469,0,0,1,1.136-.145,1.389,1.389,0,0,1,.707,2.209,9.678,9.678,0,0,1-.8.827.327.327,0,0,0-.1.385c.409,1.345.8,2.695,1.209,4.039a.629.629,0,0,1-.179.718c-.323.3-.626.629-.945.938s-.577.288-.839-.07q-2.981-4.064-5.954-8.134c-.206-.283-.187-.536.034-.7s.485-.108.7.187q2.727,3.719,5.45,7.44c.081.111.163.221.252.34.041-.031.069-.055.1-.075a.852.852,0,0,0,.312-1.119c-1.329-4.373-2.624-8.756-3.93-13.136-.03-.1-.07-.2-.112-.321l-4.247,3.888.74,1.017a3.177,3.177,0,0,1,.187.266.446.446,0,0,1-.1.607.439.439,0,0,1-.609-.081c-.248-.306-.472-.631-.707-.947-.059-.079-.119-.157-.2-.258-.576.5-1.144,1-1.715,1.491q-2.878,2.481-5.763,4.956a.331.331,0,0,0-.117.445c.376.94.729,1.89,1.1,2.831a.635.635,0,0,1-.163.794c-.391.361-.755.751-1.134,1.125a.489.489,0,0,1-.812,0q-3.286-3.282-6.568-6.568c-.291-.291-.285-.513.009-.81.388-.393.786-.776,1.168-1.175a.571.571,0,0,1,.695-.137c.971.379,1.945.749,2.917,1.126.135.052.235.086.358-.057q3.209-3.735,6.429-7.46c.019-.022.033-.048.064-.094q-1.14-.836-2.279-1.672l-8.66-6.336c-.469-.344-.488-.569-.083-.977.292-.294.592-.579.876-.881a.611.611,0,0,1,.692-.176c1.335.406,2.675.8,4.01,1.2a.378.378,0,0,0,.461-.117c.181-.208.386-.395.582-.589a1.439,1.439,0,0,1,1.876-.248,1.416,1.416,0,0,1,.429,1.839.266.266,0,0,0-.013.056c.478.266.52.26.893-.114q.241-.241.481-.481a1.414,1.414,0,0,1,2.262,1.7,2.058,2.058,0,0,0,.206.086c1.074.32,2.15.632,3.221.962a.4.4,0,0,0,.464-.113c.89-.851,1.764-1.722,2.7-2.521a7.529,7.529,0,0,1,2.829-1.608,3.168,3.168,0,0,1,1.191-.121,1.629,1.629,0,0,1,1.495,1.376.254.254,0,0,0,.047.072Zm-21.009,19.515c.075-.058.146-.11.213-.166,1.191-1,2.386-2,3.572-3.01,4.446-3.781,8.859-7.6,13.036-11.68a16.787,16.787,0,0,0,2.3-2.691,5.27,5.27,0,0,0,.982-2.221.914.914,0,0,0-1.08-1.085,4.246,4.246,0,0,0-.932.262,9.091,9.091,0,0,0-2.219,1.391,35.393,35.393,0,0,0-3.628,3.559c-4.181,4.447-8.142,9.088-12.067,13.76-.315.375-.628.752-.918,1.1ZM1693,937.075l10.747,7.865,3.89-4.249c-.095-.033-.158-.057-.223-.076-4.415-1.318-8.834-2.623-13.24-3.968A.864.864,0,0,0,1693,937.075Zm3.51,20.768,2.035,2.037c.175-.185.37-.407.584-.609a.3.3,0,0,0,.081-.385c-.215-.527-.411-1.061-.615-1.592-.111-.289-.226-.577-.351-.9Zm-.612-3.8c-.885-.341-1.732-.669-2.582-.989a.245.245,0,0,0-.209.041c-.251.231-.491.474-.677.657l2.024,2.024Zm6.66-15.826c.369.109.658.2.949.28.061.017.167.038.186.01a1.429,1.429,0,0,0,.306-.536c.018-.126-.135-.317-.261-.413a.431.431,0,0,0-.564.078C1702.975,937.811,1702.79,938,1702.556,938.22Zm11.518,11.515a8.835,8.835,0,0,0,.666-.768.418.418,0,0,0-.131-.575.463.463,0,0,0-.6-.017c-.176.12-.313.245-.208.5S1713.97,949.395,1714.074,949.734Zm-15.131-12.592c.365.109.67.2.978.286a.254.254,0,0,0,.187-.041.5.5,0,0,0,.113-.683.463.463,0,0,0-.669-.132A7.878,7.878,0,0,0,1698.944,937.142Zm16.2,16.2c.211-.216.4-.377.547-.566a.464.464,0,0,0-.224-.756.735.735,0,0,0-.5.123c-.072.047-.077.255-.052.378C1714.962,952.778,1715.052,953.027,1715.146,953.344Z" transform="translate(-1686.526 -935.491)" fill="#fff"/>
  <path d="M1996.884,1371.559c-.277-.293-.284-.5,0-.785q1.824-1.832,3.656-3.656c.247-.246.505-.267.7-.076a.447.447,0,0,1-.034.68q-1.919,1.924-3.849,3.838Z" transform="translate(-1973.814 -1341.338)" fill="#fff"/>
  <path d="M1611.587,989.807a.457.457,0,0,1-.46-.659,1.359,1.359,0,0,1,.225-.271q1.744-1.749,3.492-3.494a1.76,1.76,0,0,1,.221-.2.407.407,0,0,1,.564.041.417.417,0,0,1,.057.564,1.207,1.207,0,0,1-.173.2q-1.777,1.779-3.558,3.553A2.324,2.324,0,0,1,1611.587,989.807Z" transform="translate(-1611.07 -982.153)" fill="#fff"/>
  <path d="M1667.8,1020.52a.46.46,0,0,1-.464-.641.939.939,0,0,1,.182-.229q1.083-1.087,2.171-2.17a1.339,1.339,0,0,1,.177-.155.4.4,0,0,1,.562.054.394.394,0,0,1,.047.561,5.68,5.68,0,0,1-.445.471c-.625.627-1.248,1.256-1.881,1.875A1.955,1.955,0,0,1,1667.8,1020.52Z" transform="translate(-1663.955 -1012.39)" fill="#fff"/>
  <path d="M1989.628,1337.839c-.145-.105-.32-.169-.373-.288a.519.519,0,0,1,.014-.457q1.227-1.275,2.5-2.506a.378.378,0,0,1,.557.061.4.4,0,0,1,.054.54,1.285,1.285,0,0,1-.173.2c-.715.717-1.429,1.436-2.151,2.147A3.322,3.322,0,0,1,1989.628,1337.839Z" transform="translate(-1966.792 -1310.837)" fill="#fff"/>
  <path d="M1718.492,1043.547a2.48,2.48,0,0,1,.256-.407c.5-.516,1.012-1.023,1.524-1.529.25-.247.5-.267.7-.071a.463.463,0,0,1-.059.7c-.511.52-1.029,1.034-1.547,1.547-.156.155-.351.26-.556.127A1.764,1.764,0,0,1,1718.492,1043.547Z" transform="translate(-1712.124 -1035.129)" fill="#fff"/>
  <path d="M1977.171,1297.6a.442.442,0,0,1-.468-.615.981.981,0,0,1,.2-.255q.718-.725,1.443-1.441c.089-.088.209-.214.307-.208a.806.806,0,0,1,.481.185.363.363,0,0,1-.035.533q-.835.857-1.694,1.692A.659.659,0,0,1,1977.171,1297.6Z" transform="translate(-1954.988 -1273.765)" fill="#fff"/>
</svg>
