<svg xmlns="http://www.w3.org/2000/svg" width="52.193" height="52.189" viewBox="0 0 52.193 52.189">
  <g id="Group_208" data-name="Group 208" transform="translate(-1260.181 -993.237)">
    <path id="Path_2" data-name="Path 2" d="M379.813,24.2a3.691,3.691,0,0,0-2.884-2.349,6.976,6.976,0,0,0-1.483,0,1.11,1.11,0,0,1-1.321-.948c-.535-2.471-1.061-4.95-1.58-7.421A1.086,1.086,0,0,1,373.51,12c2.69-.591,5.379-1.159,8.061-1.742L404.9,5.232q6.185-1.337,12.363-2.665A1.185,1.185,0,0,1,418.9,3.62c.5,2.333,1,4.658,1.515,6.992.243,1.1.016,1.491-1.061,1.831a3.787,3.787,0,0,0-1.863,6.019,3.729,3.729,0,0,0,3.638,1.377,1.141,1.141,0,0,1,1.483.988c.178.786.324,1.58.5,2.366.113.51.13,1.053.745,1.345a1.092,1.092,0,0,1,.373.851q.036,4.278.008,8.555c-.008.762-.389,1.1-1.175,1.167a4.335,4.335,0,0,0-.656,8.6c1.839.259,1.839.259,1.839,2.131v7.34c0,1.134-.348,1.5-1.474,1.5H373.551c-1.134,0-1.491-.356-1.491-1.483V45.253c0-1.077.259-1.361,1.329-1.483a4.337,4.337,0,0,0-.008-8.66c-1.029-.1-1.312-.4-1.312-1.434-.008-2.69-.008-5.371,0-8.061,0-1.045.389-1.418,1.442-1.418,1.9-.008,3.791,0,5.687,0Zm42.225,28.225c0-2.106-.008-4.148.008-6.189,0-.316-.162-.389-.429-.454a6.512,6.512,0,0,1-.016-12.671c.332-.081.446-.219.438-.559-.016-1.272-.008-2.536-.008-3.808V26.458h-9.754v.648c0,2.981-.008,5.963.008,8.936a1.1,1.1,0,0,1-.689,1.142c-.77.324-1.507-.243-1.507-1.183-.008-2.981,0-5.963,0-8.936v-.616H374.337a1.081,1.081,0,0,0-.057.235q0,2.977-.008,5.963c0,.365.211.4.478.47a6.518,6.518,0,0,1,.024,12.654c-.381.1-.51.227-.5.616.016,1.855.008,3.719.008,5.574a4.254,4.254,0,0,0,.04.462h9.714V42.733a1.043,1.043,0,0,1,.786-1.069.94.94,0,0,1,1.159.405,1.838,1.838,0,0,1,.243.932c.016,2.941.008,5.89.008,8.831v.608C398.187,52.423,410.08,52.423,422.038,52.423ZM416.926,4.892c-10.086,2.171-20.108,4.326-30.137,6.489.859,4.3,1.7,8.539,2.544,12.784h31.741c-.154-.721-.3-1.393-.437-2.05-3.378-.413-5.371-1.936-6-4.594a5.86,5.86,0,0,1,.211-3.573,6.081,6.081,0,0,1,3.305-3.443C417.736,8.626,417.339,6.787,416.926,4.892ZM376.086,19.523c.122.016.178.032.235.032a5.943,5.943,0,0,1,5.7,4.318c.105.316.284.324.535.324H387.1c-.826-4.156-1.628-8.215-2.455-12.363-3.265.7-6.5,1.393-9.754,2.1C375.284,15.82,375.681,17.659,376.086,19.523Z" transform="translate(888.121 990.743)" fill="#fff"/>
    <path id="Path_4" data-name="Path 4" d="M382.618,5.731a3.269,3.269,0,1,1-3.265-3.241A3.235,3.235,0,0,1,382.618,5.731Zm-3.289-1.037a1.062,1.062,0,0,0-1.053,1.053,1.114,1.114,0,0,0,1.1,1.077A1.069,1.069,0,0,0,380.406,5.7,1.017,1.017,0,0,0,379.329,4.694Z" transform="translate(887.357 990.747)" fill="#fff"/>
    <path id="Path_6" data-name="Path 6" d="M397.566,52.637a5.1,5.1,0,0,1-.915-.753.928.928,0,0,1,.057-1.134,3.431,3.431,0,0,1,.365-.405q4.363-4.363,8.733-8.725a1.948,1.948,0,0,1,.753-.51.982.982,0,0,1,1.183.478,1.06,1.06,0,0,1-.065,1.24,4.647,4.647,0,0,1-.332.365q-4.363,4.363-8.733,8.725A8.518,8.518,0,0,1,397.566,52.637Z" transform="translate(883.484 983.424)" fill="#fff"/>
    <path id="Path_8" data-name="Path 8" d="M398,45.852a3.262,3.262,0,1,1,3.322-3.241A3.273,3.273,0,0,1,398,45.852Zm.04-2.212a1.033,1.033,0,0,0,1.061-1.029,1.067,1.067,0,0,0-1.069-1.086,1.091,1.091,0,0,0-1.069,1.045A1.06,1.06,0,0,0,398.041,43.64Z" transform="translate(883.812 983.753)" fill="#fff"/>
    <path id="Path_10" data-name="Path 10" d="M410.784,52.091a3.257,3.257,0,1,1-3.224-3.281A3.259,3.259,0,0,1,410.784,52.091Zm-2.2-.008a1.016,1.016,0,0,0-1.029-1.053,1.032,1.032,0,0,0-1.094,1.053,1.061,1.061,0,1,0,2.123,0Z" transform="translate(882.006 981.953)" fill="#fff"/>
    <path id="Path_12" data-name="Path 12" d="M389,36.867H386.89V34.72H389Z" transform="translate(885.306 984.628)" fill="#fff"/>
    <path id="Path_14" data-name="Path 14" d="M389.013,40.06v2.123H386.89V40.06Z" transform="translate(885.306 983.614)" fill="#fff"/>
    <path id="Path_16" data-name="Path 16" d="M421.181,48.1v2.139H419.05V48.1Z" transform="translate(879.199 982.088)" fill="#fff"/>
    <path id="Path_18" data-name="Path 18" d="M421.173,55.643H419.05V53.52h2.123Z" transform="translate(879.199 981.059)" fill="#fff"/>
    <path id="Path_20" data-name="Path 20" d="M419.03,60.981V58.85h2.123v2.131Z" transform="translate(879.203 980.047)" fill="#fff"/>
    <path id="Path_22" data-name="Path 22" d="M386.86,47.589V45.45h2.131v2.139Z" transform="translate(885.312 982.591)" fill="#fff"/>
    <path id="Path_24" data-name="Path 24" d="M416.029,16.842a1.14,1.14,0,0,1-.883,1.24q-2.71.9-5.42,1.807-5.165,1.726-10.321,3.443a3.924,3.924,0,0,1-.527.154,1.1,1.1,0,0,1-1.288-.77,1.055,1.055,0,0,1,.7-1.321c1.118-.4,2.252-.762,3.386-1.142q6.331-2.114,12.671-4.229a1.167,1.167,0,0,1,1.515.373A1.793,1.793,0,0,1,416.029,16.842Z" transform="translate(883.281 988.199)" fill="#fff"/>
    <path id="Path_26" data-name="Path 26" d="M400.077,17.326a1.106,1.106,0,0,1-1.15-.94,1.061,1.061,0,0,1,.794-1.223c1.086-.34,2.171-.656,3.265-.98,2.422-.721,4.845-1.45,7.259-2.171a2.793,2.793,0,0,1,.373-.1A1.085,1.085,0,0,1,411.2,14c-1.134.365-2.276.689-3.419,1.037q-3.573,1.082-7.154,2.155C400.417,17.253,400.2,17.294,400.077,17.326Z" transform="translate(883.023 988.962)" fill="#fff"/>
  </g>
</svg>
