<svg xmlns="http://www.w3.org/2000/svg" width="49.272" height="54.836" viewBox="0 0 49.272 54.836">
  <g id="Group_204" data-name="Group 204" transform="translate(0 0)">
    <path id="Path_331" data-name="Path 331" d="M-147.716-1.44a3.691,3.691,0,0,1,2.364,2c.041.1.3.135.458.135,1.606.009,3.213,0,4.819.007.992,0,1.357.365,1.361,1.35,0,.245,0,.491,0,.791h.624c1.892,0,3.784,0,5.676,0a3.193,3.193,0,0,1,3.344,3.326c.01,1.428,0,2.856.007,4.284a1.743,1.743,0,0,0,.037.2c.4,0,.817,0,1.235,0a3.228,3.228,0,0,1,3.542,3.557c0,2.177,0,4.353,0,6.573a4.042,4.042,0,0,0,.422.047c.625.005,1.249,0,1.874,0a3.433,3.433,0,0,1,3.58,3.567q.01,8.782,0,17.563c0,1.91.007,3.82,0,5.73a3.373,3.373,0,0,1-2.035,3.245c-.241.116-.359.237-.337.514a5.557,5.557,0,0,1-.005.909,1.079,1.079,0,0,1-1.09,1.032,1.058,1.058,0,0,1-1.036-1.076c-.014-.335,0-.67,0-1.032h-14.5c0,.35.018.684,0,1.016a1.073,1.073,0,0,1-1.082,1.093,1.074,1.074,0,0,1-1.047-1.125.272.272,0,0,1,0-.054,1.326,1.326,0,0,0-.831-1.587,3.269,3.269,0,0,1-1.152-1.285.807.807,0,0,0-.823-.465q-10.95.016-21.9.006a3.231,3.231,0,0,1-3.37-2.68,4.4,4.4,0,0,1-.049-.8q0-19.544,0-39.088a3.226,3.226,0,0,1,3.472-3.474l6-.007a1.122,1.122,0,0,0,.176-.044c0-.274,0-.57,0-.866A1.1,1.1,0,0,1-156.767.7c1.642-.007,3.284-.012,4.926.006a.593.593,0,0,0,.642-.4,3.406,3.406,0,0,1,2.3-1.754Zm-10.277,6.426h-6.073c-1.095,0-1.43.339-1.43,1.446q0,19.44,0,38.88c0,1.089.349,1.433,1.451,1.433h22.113V42.787h-10.3a3.737,3.737,0,0,1-.534-.015,1.087,1.087,0,0,1-.939-1.07,1.072,1.072,0,0,1,1.014-1.048c.178-.015.357-.008.535-.008h10.226V34.218h-10.294a3.932,3.932,0,0,1-.535-.014,1.087,1.087,0,0,1-.946-1.063,1.071,1.071,0,0,1,1.006-1.056c.177-.015.356-.009.535-.009h10.216V25.65h-10.322a3.153,3.153,0,0,1-.534-.021,1.083,1.083,0,0,1-.9-1.1,1.073,1.073,0,0,1,1-1.009c.177-.016.356-.009.535-.009h9.854c.262,0,.483.038.618-.326a3.38,3.38,0,0,1,3.4-2.346c.743,0,1.486,0,2.266,0v-.651c0-2.035,0-4.07,0-6.105a3.228,3.228,0,0,1,3.421-3.422c.456,0,.912,0,1.4,0,0-1.508,0-2.936,0-4.362,0-.928-.375-1.3-1.3-1.306q-2.865,0-5.73,0c-.152,0-.3.021-.478.034,0,.673,0,1.3,0,1.92-.007.851-.4,1.255-1.241,1.255q-8.408.005-16.816,0a1.094,1.094,0,0,1-1.22-1.229C-158,6.329-157.993,5.689-157.993,4.986Zm21.926,17.991h-2.011c-1.224,0-1.68.452-1.68,1.674q0,11.406,0,22.811c0,1.186.471,1.653,1.653,1.653h15.9c1.254,0,1.691-.443,1.691-1.715V24.7a5.211,5.211,0,0,0-.011-.535,1.22,1.22,0,0,0-1.031-1.145c-.881-.056-1.769-.015-2.7-.015,0,.4.008.754,0,1.108a3.17,3.17,0,0,1-3.094,3.139c-1.856.04-3.713.035-5.568,0a3.137,3.137,0,0,1-3.043-2.662C-136.042,24.082-136.031,23.561-136.067,22.977Zm-4.8-20.132h-.571c-1.534,0-3.068,0-4.6,0a1.1,1.1,0,0,1-1.245-1.1,1.073,1.073,0,0,0-1.08-1.037,1.1,1.1,0,0,0-1.06,1.066,1.075,1.075,0,0,1-1.21,1.07c-1.427.007-2.854,0-4.281,0h-.9V6.015h14.946Zm7.006,17.95h7.426V17.112h-7.426Zm0-5.892h7.468c0-.264,0-.493,0-.723,0-1.035-.345-1.381-1.375-1.383-1.408,0-2.818.051-4.224-.013C-133.917,12.7-133.974,13.445-133.858,14.9Zm-.022,8.1c0,.389-.024.743.006,1.093a1.042,1.042,0,0,0,1.05,1.011q2.7.028,5.4,0a1,1,0,0,0,1.016-.917c.035-.384.007-.774.007-1.186Z" transform="translate(167.638 1.44)" fill="#fff"/>
    <path id="Path_332" data-name="Path 332" d="M-136.516,26.272c2.067,0,4.135,0,6.2,0a1.107,1.107,0,0,1,1.18.726,1.058,1.058,0,0,1-.8,1.39,2,2,0,0,1-.425.028q-6.2,0-12.406,0c-.8,0-1.314-.441-1.3-1.094s.5-1.045,1.288-1.046Q-139.645,26.268-136.516,26.272Z" transform="translate(157.995 -9.893)" fill="#fff"/>
    <path id="Path_333" data-name="Path 333" d="M-156.1,26.367c.726-.745,1.355-1.4,2-2.044a1.111,1.111,0,0,1,1.649-.15,1.094,1.094,0,0,1-.126,1.647q-1.3,1.311-2.61,2.608a1.078,1.078,0,0,1-1.725.011c-.435-.421-.868-.847-1.283-1.288a1.045,1.045,0,0,1-.052-1.529,1.062,1.062,0,0,1,1.569.034A7.452,7.452,0,0,1-156.1,26.367Z" transform="translate(163.927 -8.913)" fill="#fff"/>
    <path id="Path_334" data-name="Path 334" d="M-156.093,40.835c.707-.718,1.339-1.369,1.981-2.009a1.114,1.114,0,0,1,1.649-.157,1.092,1.092,0,0,1-.119,1.647q-1.3,1.311-2.61,2.608a1.076,1.076,0,0,1-1.725.018c-.436-.421-.867-.847-1.283-1.287a1.045,1.045,0,0,1-.059-1.529,1.063,1.063,0,0,1,1.569.025C-156.483,40.344-156.314,40.579-156.093,40.835Z" transform="translate(163.927 -14.842)" fill="#fff"/>
    <path id="Path_335" data-name="Path 335" d="M-156.1,55.334c.71-.72,1.343-1.371,1.986-2.012a1.113,1.113,0,0,1,1.649-.152,1.094,1.094,0,0,1-.124,1.647q-1.3,1.311-2.61,2.608a1.076,1.076,0,0,1-1.725.013c-.436-.421-.868-.847-1.284-1.287a1.045,1.045,0,0,1-.054-1.529,1.063,1.063,0,0,1,1.569.03A8.965,8.965,0,0,1-156.1,55.334Z" transform="translate(163.927 -20.773)" fill="#fff"/>
    <path id="Path_336" data-name="Path 336" d="M-156.091,69.84c.719-.733,1.349-1.387,1.991-2.03a1.109,1.109,0,0,1,1.649-.133,1.1,1.1,0,0,1-.142,1.647q-1.279,1.292-2.571,2.57a1.1,1.1,0,0,1-1.8-.006c-.42-.412-.843-.822-1.245-1.251a1.043,1.043,0,0,1-.035-1.528,1.055,1.055,0,0,1,1.53.014A8.976,8.976,0,0,1-156.091,69.84Z" transform="translate(163.927 -26.703)" fill="#fff"/>
    <path id="Path_337" data-name="Path 337" d="M-112.921,60.416c0,2.085.018,4.171-.017,6.256a1.554,1.554,0,0,1-.392.986,1.007,1.007,0,0,1-1.643-.452,2.35,2.35,0,0,1-.086-.735q-.007-6.042,0-12.084c0-.125-.005-.25,0-.374a1.086,1.086,0,0,1,1.095-1.082,1.042,1.042,0,0,1,1.038,1.122C-112.915,56.174-112.921,58.3-112.921,60.416Z" transform="translate(146.135 -20.797)" fill="#fff"/>
    <path id="Path_338" data-name="Path 338" d="M-103.858,60.47q0,3.1,0,6.2c0,.823-.415,1.314-1.081,1.3-.637-.012-1.058-.51-1.058-1.284q0-6.229,0-12.458c0-.481.126-.946.593-1.1a1.385,1.385,0,0,1,1.079.085,1.389,1.389,0,0,1,.452.994C-103.838,56.3-103.858,58.384-103.858,60.47Z" transform="translate(142.429 -20.853)" fill="#fff"/>
    <path id="Path_339" data-name="Path 339" d="M-94.8,60.416c0,2.085.018,4.171-.017,6.255a1.552,1.552,0,0,1-.392.986,1.006,1.006,0,0,1-1.643-.451,2.348,2.348,0,0,1-.086-.735q-.007-6.042,0-12.084c0-.125-.005-.25,0-.374a1.086,1.086,0,0,1,1.094-1.082A1.042,1.042,0,0,1-94.8,54.053C-94.792,56.174-94.8,58.295-94.8,60.416Z" transform="translate(138.723 -20.798)" fill="#fff"/>
  </g>
</svg>
