<svg xmlns="http://www.w3.org/2000/svg" width="56.651" height="54.616" viewBox="0 0 56.651 54.616">
  <g transform="translate(0 0)">
    <path d="M1685.616,1194.991c1.915.522,3.78,1.044,5.657,1.52a.9.9,0,0,0,.665-.305,48.283,48.283,0,0,1,3.7-3.881,18.167,18.167,0,0,1,13.01-4.207,1.029,1.029,0,0,1,1.112,1.127,19.114,19.114,0,0,1-5.254,14.248,28.576,28.576,0,0,1-2.86,2.462.646.646,0,0,0-.263.807c.28.894.5,1.808.731,2.716.186.724-.088,1.286-.681,1.429-.617.148-1.089-.179-1.3-.915-.2-.7-.381-1.394-.607-2.224l-6.87,5.866c.114.222.21.428.323.625q2.568,4.5,5.14,9a3.185,3.185,0,0,1,.3.565,1.013,1.013,0,0,1-1.743.984,3.5,3.5,0,0,1-.339-.541q-2.469-4.336-4.936-8.672c-.1-.182-.219-.358-.365-.594-.593.5-1.159.975-1.72,1.455q-4.893,4.179-9.79,8.354a1,1,0,0,0-.4.982c.292,2.586.539,5.177.849,7.761a1.428,1.428,0,0,1-.7,1.565c-.579.36-1.126.773-1.7,1.143a1.042,1.042,0,0,1-1.745-.513c-.99-2.2-1.947-4.406-2.964-6.589a7.935,7.935,0,0,0-1.062-1.561,11.5,11.5,0,0,0-5.073-3.517c-1.552-.586-3.043-1.336-4.558-2.019-.94-.424-1.1-1.018-.521-1.88.346-.513.725-1.005,1.046-1.533a1.348,1.348,0,0,1,1.443-.7q3.974.447,7.955.838a1.012,1.012,0,0,0,.761-.255q4.955-5.746,9.869-11.527a1.247,1.247,0,0,0,.089-.161q-2.323-1.327-4.647-2.654l-13.452-7.66c-1.04-.592-1.141-.96-.555-2.005q1-1.785,2.008-3.568c.453-.8.736-.924,1.613-.692,2.657.7,5.317,1.4,7.967,2.129a.867.867,0,0,0,1.01-.272,7.761,7.761,0,0,1,.79-.748,1.006,1.006,0,0,1,1.438-.032,1.026,1.026,0,0,1,.035,1.44c-.088.113-.184.22-.332.4,1.482.4,2.889.79,4.3,1.155a.639.639,0,0,0,.43-.151,3.468,3.468,0,0,0,.411-.4c.58-.574,1.041-.691,1.518-.387S1685.92,1194.145,1685.616,1194.991Zm22.069-4.809a2.578,2.578,0,0,0-.358-.034c-.723.043-1.454.04-2.168.147a15.84,15.84,0,0,0-10.062,5.328q-10.483,12.217-20.893,24.5a1.833,1.833,0,0,1-1.827.721c-2.5-.322-5-.55-7.5-.828-.474-.052-.832.015-.937.586,1,.449,1.965.961,2.984,1.325a15.007,15.007,0,0,1,6.787,4.692,5.459,5.459,0,0,1,.747,1.1c.889,1.912,1.745,3.841,2.615,5.762.074.164.171.318.241.446.55-.125.59-.464.543-.893-.285-2.586-.539-5.176-.838-7.76a1.45,1.45,0,0,1,.523-1.41c7.987-6.812,15.942-13.663,23.966-20.431a17.133,17.133,0,0,0,5.35-7.945A16.633,16.633,0,0,0,1707.685,1190.182Zm-17.591,8.139-22.342-5.962-1.521,2.624,17.971,10.244Z" transform="translate(-1661.305 -1188.085)" fill="#fff"/>
    <path d="M1939.059,1373.164q-3.714,0-7.428,0c-.97,0-1.318-.342-1.319-1.3q-.006-5.859,0-11.718c0-.953.365-1.321,1.322-1.322q7.4-.007,14.791,0c.958,0,1.3.358,1.3,1.324q0,5.859,0,11.718c0,.976-.326,1.3-1.307,1.3Q1942.741,1373.169,1939.059,1373.164Zm-6.663-2.093h13.228v-10.156h-5.544a7.336,7.336,0,0,1-.1,1.309.867.867,0,0,1-.964.68c-1.3-.122-.928-1.191-1.064-1.989H1932.4Z" transform="translate(-1891.081 -1333.92)" fill="#fff"/>
    <path d="M1812.512,1478.569q-3.682,0-7.364,0c-.972,0-1.32-.341-1.321-1.3q-.006-5.859,0-11.718c0-.955.364-1.323,1.319-1.324q7.4-.007,14.791,0c.959,0,1.305.357,1.306,1.321q0,5.859,0,11.718c0,.978-.326,1.3-1.3,1.3Q1816.226,1478.573,1812.512,1478.569Zm-1.038-12.258h-5.551v10.173h13.224v-10.172h-5.542c-.145.817.256,2.022-1.114,1.974C1811.247,1468.242,1811.59,1467.128,1811.475,1466.311Z" transform="translate(-1783.041 -1423.953)" fill="#fff"/>
    <path d="M1939.052,1478.569q-3.714,0-7.428,0c-.964,0-1.311-.345-1.311-1.31q-.006-5.859,0-11.718c0-.948.369-1.313,1.329-1.314q7.4-.007,14.791,0c.954,0,1.3.36,1.3,1.331q0,5.859,0,11.718c0,.972-.327,1.292-1.314,1.293Q1942.733,1478.573,1939.052,1478.569Zm6.59-2.08v-10.165h-5.554c-.152,1.627-.334,2.015-1.023,1.981-1.351-.067-.969-1.189-1.115-1.982H1932.4v10.165Z" transform="translate(-1891.081 -1423.953)" fill="#fff"/>
    <path d="M1848.445,1278.844a7.281,7.281,0,0,1-.788,1q-4.672,4.079-9.368,8.129c-.322.279-.641.562-.967.837-.643.542-1.272.566-1.679.069s-.309-1.048.325-1.6q3.62-3.144,7.249-6.279l3.286-2.847a.915.915,0,0,1,1.165-.2A4.9,4.9,0,0,1,1848.445,1278.844Z" transform="translate(-1810.009 -1264.73)" fill="#fff"/>
    <path d="M1751.061,1408.021a4.6,4.6,0,0,1-.486.855c-.6.639-1.221,1.254-1.851,1.861a1,1,0,0,1-1.525.077,1.019,1.019,0,0,1,.1-1.532c.608-.629,1.231-1.244,1.856-1.856a.9.9,0,0,1,1.16-.228A4.347,4.347,0,0,1,1751.061,1408.021Z" transform="translate(-1734.414 -1375.133)" fill="#fff"/>
  </g>
</svg>
