<svg xmlns="http://www.w3.org/2000/svg" width="21.351" height="17.341" viewBox="0 0 21.351 17.341">
  <path id="Icon_awesome-twitter" data-name="Icon awesome-twitter" d="M19.156,7.7c.014.19.014.379.014.569A12.365,12.365,0,0,1,6.72,20.722,12.366,12.366,0,0,1,0,18.757a9.052,9.052,0,0,0,1.057.054,8.764,8.764,0,0,0,5.433-1.87A4.384,4.384,0,0,1,2.4,13.907a5.518,5.518,0,0,0,.826.068,4.628,4.628,0,0,0,1.152-.149A4.376,4.376,0,0,1,.867,9.531V9.477a4.407,4.407,0,0,0,1.978.555A4.382,4.382,0,0,1,1.49,4.18a12.438,12.438,0,0,0,9.023,4.579,4.94,4.94,0,0,1-.108-1,4.38,4.38,0,0,1,7.573-2.994,8.615,8.615,0,0,0,2.777-1.057,4.364,4.364,0,0,1-1.924,2.411,8.772,8.772,0,0,0,2.52-.677A9.406,9.406,0,0,1,19.156,7.7Z" transform="translate(0 -3.381)" fill="#fff"/>
</svg>
