<svg xmlns="http://www.w3.org/2000/svg" width="16.013" height="20.813" viewBox="0 0 16.013 20.813">
  <path id="Icon_awesome-pinterest-p" data-name="Icon awesome-pinterest-p" d="M8.507.457C4.229.457,0,3.309,0,7.926c0,2.936,1.651,4.6,2.652,4.6.413,0,.651-1.151.651-1.476,0-.388-.988-1.214-.988-2.827A5.636,5.636,0,0,1,8.169,2.5c2.84,0,4.942,1.614,4.942,4.579,0,2.214-.888,6.368-3.766,6.368a1.852,1.852,0,0,1-1.927-1.827c0-1.576,1.1-3.1,1.1-4.729C8.52,4.127,4.6,4.627,4.6,7.963A4.9,4.9,0,0,0,5,10.077c-.575,2.477-1.751,6.168-1.751,8.72,0,.788.113,1.564.188,2.352.142.158.071.142.288.063,2.1-2.877,2.027-3.44,2.977-7.206a3.382,3.382,0,0,0,2.89,1.5c4.429,0,6.418-4.316,6.418-8.207C16.013,3.159,12.435.457,8.507.457Z" transform="translate(0 -0.457)" fill="#fff"/>
</svg>
