<svg xmlns="http://www.w3.org/2000/svg" width="57.393" height="57.412" viewBox="0 0 57.393 57.412">
  <g id="Group_7" data-name="Group 7" transform="translate(-266.669 -1.278)">
    <path id="Path_310" data-name="Path 310" d="M295.617,58.689a6.853,6.853,0,0,1-2.9-1.47,5.5,5.5,0,0,1-1.811-4.129V50.623c0-.9.3-1.251,1.242-1.382,0-.919.017-1.855-.017-2.782a1.054,1.054,0,0,0-.3-.507q-5.748-6.732-11.5-13.464A18.773,18.773,0,0,1,290.306,1.77a21.67,21.67,0,0,1,4.042-.455,54.446,54.446,0,0,1,6.325.114,18.181,18.181,0,0,1,11.575,5.73,1.131,1.131,0,1,1-1.636,1.557,16.9,16.9,0,0,0-5.162-3.692c-.289-.131-.577-.245-1-.42a1.669,1.669,0,0,0,.175.245,11.107,11.107,0,0,1,2.887,7.778,71.466,71.466,0,0,1-2.327,17.7,2.284,2.284,0,0,0-.052.28c.49-.079.945-.122,1.391-.227a.822.822,0,0,0,.437-.35,7.2,7.2,0,0,1,6.553-3.849.529.529,0,0,0,.586-.429,16.346,16.346,0,0,0,.814-8.145c-.1-.595-.2-1.207.4-1.627a1.12,1.12,0,0,1,1.776.875c.131,1.129.219,2.266.254,3.4a16.962,16.962,0,0,1-1.015,5.975c-.044.14-.079.28-.131.446a7.437,7.437,0,0,1,3.307,2.686.552.552,0,0,0,.367.184,5.629,5.629,0,0,1,5.249,4.716c.009.035.044.061.061.087v1.68a.987.987,0,0,0-.1.192,5.631,5.631,0,0,1-8.084,4.007.9.9,0,0,0-.656.009,7.428,7.428,0,0,1-6.133-.131.954.954,0,0,0-.744.026,5.4,5.4,0,0,1-3.456.639.78.78,0,0,0-.6.245c-1.461,1.68-2.9,3.368-4.331,5.066a.751.751,0,0,0-.219.429c-.017.91-.009,1.82-.009,2.721.945.14,1.242.481,1.242,1.391V53.09a5.585,5.585,0,0,1-4.138,5.407c-.192.052-.376.131-.569.192ZM297.69,3.633V34.884a1.388,1.388,0,0,0,.2.035c1.024,0,2.056-.017,3.08.009.367.009.5-.131.612-.464a68.907,68.907,0,0,0,3.674-21.951,8.614,8.614,0,0,0-3.2-6.973A8.482,8.482,0,0,0,297.69,3.633Zm-2.327.017a2.038,2.038,0,0,0-.28.017,8.767,8.767,0,0,0-7.3,8.933,66.332,66.332,0,0,0,1.575,14.208c.595,2.59,1.4,5.127,2.126,7.69.044.166.254.411.394.411,1.155.035,2.3.017,3.482.017Zm-7,1.094c-.149.052-.306.1-.455.157a16.453,16.453,0,0,0-7.533,23.718,62.288,62.288,0,0,0,4.891,6.107.594.594,0,0,0,.376.184c1.172.017,2.353.009,3.569.009-.061-.21-.114-.385-.166-.56a74.206,74.206,0,0,1-2.415-9.632,72.925,72.925,0,0,1-1.059-9.947,18.144,18.144,0,0,1,.236-4.961A12.662,12.662,0,0,1,288.364,4.744Zm18.749,27.935a2.956,2.956,0,1,0,1.767,5.092,1.2,1.2,0,0,1,1.715-.07,4.878,4.878,0,0,0,5.153.306,1.786,1.786,0,0,1,2.1.07,3.264,3.264,0,0,0,3.858-.254,3.336,3.336,0,0,0,1.041-3.736,3.216,3.216,0,0,0-3.167-2.213,1.775,1.775,0,0,1-1.837-1.024,4.743,4.743,0,0,0-4.619-2.388,4.87,4.87,0,0,0-4.374,3.167C308.329,32.592,308.18,32.705,307.113,32.679Zm-5.407,4.541H287.358c2.126,2.493,4.2,4.917,6.282,7.331a.836.836,0,0,0,.577.227c1.531.017,3.062.026,4.593,0a.972.972,0,0,0,.647-.3c.595-.639,1.155-1.321,1.724-1.986.8-.927,1.584-1.863,2.283-2.686C302.852,38.908,302.292,38.086,301.706,37.22Zm-8.548,14.313c0,.612-.035,1.172.009,1.724a3.352,3.352,0,0,0,6.142,1.671,5.38,5.38,0,0,0,.551-3.4C297.6,51.533,295.416,51.533,293.159,51.533Zm5.4-4.462h-4.068v2.178h4.068Z" transform="translate(-1.126)" fill="#fff"/>
    <path id="Path_311" data-name="Path 311" d="M277.632,46.15a6.4,6.4,0,0,1,4.856,2.6.978.978,0,0,0,.761.446,5.1,5.1,0,0,1,.376,10.07,5.321,5.321,0,0,1-3.167-.376,1,1,0,0,0-.656-.035,6.7,6.7,0,0,1-5.381-.114.928.928,0,0,0-.7.035,4.633,4.633,0,0,1-5.074-.332,4.451,4.451,0,0,1-1.9-4.6,4.406,4.406,0,0,1,3.5-3.788,2.484,2.484,0,0,0,1.654-1.164A6.657,6.657,0,0,1,277.632,46.15Zm-5.984,5.975a7.274,7.274,0,0,0-.989.149,2.457,2.457,0,0,0-.429,4.506A2.44,2.44,0,0,0,273,56.517c.8-.647,1.024-.647,1.881-.122a4.18,4.18,0,0,0,4.453.14,1.485,1.485,0,0,1,1.75.079,2.772,2.772,0,0,0,3.333-.149,2.871,2.871,0,0,0,.884-3.185,2.781,2.781,0,0,0-2.773-1.855,1.48,1.48,0,0,1-1.54-.831,4.1,4.1,0,0,0-3.954-2.161,4.174,4.174,0,0,0-3.823,2.73C272.829,52.047,272.584,52.222,271.648,52.125Z" transform="translate(0 -5.614)" fill="#fff"/>
    <path id="Path_312" data-name="Path 312" d="M319.755,14.667A1.186,1.186,0,0,1,318.6,13.53a1.134,1.134,0,0,1,1.094-1.12,1.1,1.1,0,0,1,1.164,1.094A1.128,1.128,0,0,1,319.755,14.667Z" transform="translate(-6.498 -1.393)" fill="#fff"/>
  </g>
</svg>
