<svg  xmlns="http://www.w3.org/2000/svg" width="63.823" height="63.763" viewBox="0 0 63.823 63.763">
  <path d="M665.514,1195.717c.916,1.693,1.9,3.3,2.689,5,8.391,17.944-2.1,39.638-21.361,44.229a31.89,31.89,0,0,1-29.5-54.191,31.9,31.9,0,0,1,40.849-2.371,1.571,1.571,0,0,0,1.508.338,6.736,6.736,0,0,1,4.283.356,3.4,3.4,0,0,0,1.1.191c.469.019.941-.05,1.411-.052a2.812,2.812,0,0,1,1.4,5.274C667.093,1194.934,666.269,1195.33,665.514,1195.717Zm-55.035,9.7c-.066.151-.1.21-.118.273-.042.128-.08.256-.115.386a29.914,29.914,0,0,0,9.242,30.5.913.913,0,0,0,.681.163.973.973,0,0,1,1.246.632,3.809,3.809,0,0,0,1.963,2.1c1.426.765,2.848,1.537,4.376,2.363.49-3.539,2.805-5.323,5.593-6.666a29.621,29.621,0,0,1,3.3-1.334,3.044,3.044,0,0,0,2.141-2.137,17.459,17.459,0,0,0,.648-3.687c.131-3.474.1-6.953.192-10.428.1-4.193,2.484-6.311,6.545-5.714a17.315,17.315,0,0,1,3.963,1.227,8.482,8.482,0,0,0,7.156,0c.891-.42,1.768-.888,2.693-1.216,1.915-.679,3.843-1.332,5.8-1.888a24.212,24.212,0,0,1,3.094-.474,29.589,29.589,0,0,0-5.183-12.89c-2.172,1.094-4.295,2.149-6.4,3.247-.185.1-.292.469-.316.725q-.381,4.221-.717,8.445a1.307,1.307,0,0,1-.939,1.245c-.714.262-1.407.582-2.107.881-1.762.752-1.939.664-2.45-1.189-.546-1.979-1.1-3.957-1.662-5.979-.3.143-.537.255-.774.375q-5.7,2.872-11.4,5.745a3.907,3.907,0,0,1-4.438-.282c-1.805-1.437-3.5-3.019-5.216-4.561a.863.863,0,0,1-.026-1.364,4.133,4.133,0,0,1,3.505-1.378,12.133,12.133,0,0,1,2.7.936,1.1,1.1,0,0,0,1.159-.068c3.251-1.985,6.52-3.943,9.782-5.911.239-.144.47-.3.746-.481-1.557-1.363-3.046-2.657-4.524-3.964a.963.963,0,0,1-.012-1.649c.765-.693,1.563-1.348,2.314-2.055a1.356,1.356,0,0,1,1.593-.279c2,.785,4.015,1.537,6.026,2.3a6.428,6.428,0,0,0,2.446.826c.786-.07,1.517-.8,2.266-1.244.582-.348,1.155-.71,1.76-1.084a29.882,29.882,0,0,0-26.391-4.632.877.877,0,0,0-.507.588c-.155,1.151-.29,2.308-.337,3.467-.033.824.118,1.655.126,2.483a3.788,3.788,0,0,1-2.091,3.577c-.785.426-1.618.766-2.439,1.123a6.881,6.881,0,0,0-4.388,5.516,10.11,10.11,0,0,1-1.438,4.161,4.186,4.186,0,0,1-5.911,1.457,15.427,15.427,0,0,1-1.347-.885C611.7,1206.309,611.124,1205.884,610.479,1205.419Zm58.7,5.987c-1.011.132-1.852.228-2.687.354a26.658,26.658,0,0,0-7.813,2.789,10.576,10.576,0,0,1-9.52.178,9.2,9.2,0,0,0-4.738-1.041,2.72,2.72,0,0,0-2.662,2.246,15.942,15.942,0,0,0-.27,2.868c-.073,3.138-.024,6.282-.184,9.416a18.1,18.1,0,0,1-.832,4.327,4.443,4.443,0,0,1-3.041,3c-.341.109-.677.235-1.011.362a15.688,15.688,0,0,0-5.1,2.793,5.166,5.166,0,0,0-1.692,2.982c-.1.535.042.79.594.956a30.113,30.113,0,0,0,12.693,1.114,30.084,30.084,0,0,0,26.247-28.242C669.252,1214.176,669.182,1212.836,669.182,1211.406Zm-58.15-7.875c1.134.8,2.17,1.581,3.265,2.274,1.629,1.032,2.989.7,3.834-1.03a12.681,12.681,0,0,0,.992-3.185,8.6,8.6,0,0,1,4.9-6.562c.625-.3,1.26-.58,1.9-.853,1.92-.821,2.232-1.444,2.07-3.534-.1-1.287,0-2.59.013-3.886,0-.187,0-.374,0-.649A30.442,30.442,0,0,0,611.032,1203.531Zm46.189-5.792c.288-.13.49-.212.685-.31q4.021-2.026,8.04-4.056a3.612,3.612,0,0,0,1-.54,1.57,1.57,0,0,0,.463-1.005.8.8,0,0,0-.9-.723c-.605.01-1.21.084-1.814.078a2.514,2.514,0,0,1-1.035-.184,5.272,5.272,0,0,0-5.375.312c-1.7,1.048-3.413,2.065-5.122,3.095q-9.1,5.487-18.187,10.984a1.507,1.507,0,0,1-1.686.085,19.26,19.26,0,0,0-1.877-.9,2.1,2.1,0,0,0-1.986.1c1.245,1.1,2.433,2.154,3.618,3.207a2.444,2.444,0,0,0,3.3.43q5.342-2.691,10.68-5.388c.5-.252,1.242-.417,1.408-.817.18-.432-.183-1.09-.309-1.65-.015-.066-.028-.132-.044-.2a1.006,1.006,0,0,1,.551-1.234c2.4-1.349,4.8-2.715,7.2-4.057.878-.49,1.571-.046,1.533.962C657.339,1196.507,657.273,1197.079,657.221,1197.739Zm-1.873-.335c-1.5.85-2.886,1.631-4.269,2.411-1.018.574-1.022.574-.707,1.709.724,2.609,1.451,5.218,2.189,7.87.452-.187.854-.385,1.277-.519a.775.775,0,0,0,.607-.82c.067-1.208.207-2.412.31-3.618C654.951,1202.137,655.142,1199.837,655.347,1197.4Zm-4.52-3.8c-.05-.066-.069-.12-.1-.133-2.147-.826-4.294-1.652-6.449-2.46a.583.583,0,0,0-.475.1c-.431.343-.835.721-1.275,1.109,1.388,1.214,2.712,2.385,4.057,3.53a.622.622,0,0,0,.567.061C648.384,1195.1,649.6,1194.346,650.828,1193.6Z" transform="translate(-607.299 -1182.095)" fill="#fff"/>
  <path d="M695.5,1377.952c.047.6-.532,1.208-.8,1.679-.4.69-.815,1.37-1.21,2.062s-.867.912-1.394.632-.651-.814-.268-1.5c.61-1.091,1.22-2.187,1.922-3.219a1.068,1.068,0,0,1,1.11-.372.84.84,0,0,1,.621.572A.851.851,0,0,1,695.5,1377.952Z" transform="translate(-677.711 -1345.054)" fill="#fff"/>
  <path d="M672.815,1469.176c0-.676-.033-1.149.008-1.615a.927.927,0,0,1,.6-.856.951.951,0,0,1,1.116.385,1.662,1.662,0,0,1,.151.684l.166,2.211c.058.771.43,2.3-.692,2.466-.541.078-.976-.272-1.078-.945C672.962,1470.666,672.889,1469.818,672.815,1469.176Z" transform="translate(-662.009 -1419.768)" fill="#fff"/>
  <path d="M675.472,1424.314a5.949,5.949,0,0,1,.363-1.345c.264-.9.53-1.8.829-2.691a.9.9,0,0,1,1.418-.343c.522.383.3.975.163,1.492q-.263,1.016-.55,2.025c-.173.611-.256,1.689-.98,1.9a.983.983,0,0,1-.976-.272A1.015,1.015,0,0,1,675.472,1424.314Z" transform="translate(-664.237 -1380.575)" fill="#fff"/>
  <path d="M951.366,1307.793c-.614-.172-.806-1.014-1.006-1.537-.252-.662-.482-1.331-.72-2a.871.871,0,0,1,.53-1.2.824.824,0,0,1,1.167.469c.428,1.029.825,2.075,1.157,3.138a.936.936,0,0,1-.974,1.159A.85.85,0,0,1,951.366,1307.793Z" transform="translate(-893.167 -1283.049)" fill="#fff"/>
  <path d="M722.054,1350.943a.581.581,0,0,1-.009.249,1.019,1.019,0,0,1-.261.4q-.673.738-1.418,1.406a.811.811,0,0,1-1.328-.142,1,1,0,0,1-.058-.908,1.79,1.79,0,0,1,.3-.437,10.1,10.1,0,0,1,1.338-1.262c.438-.349,1.071.007,1.316.4A.822.822,0,0,1,722.054,1350.943Z" transform="translate(-700.51 -1322.423)" fill="#fff"/>
</svg>
