<svg width="22" height="22" viewBox="0 0 22 22" fill="none" xmlns="http://www.w3.org/2000/svg">
    <path d="M18.1924 5.1286C18.1924 4.39744 17.5998 3.80706 16.8714 3.80706C16.1429 3.80706 15.5498 4.39744 15.5498 5.1286C15.5498 5.85707 16.1429 6.44745 16.8714 6.44745C17.5998 6.44745 18.1924 5.85707 18.1924 5.1286" fill="url(#paint0_linear_0_1)"/>
    <path d="M19.9527 15.4444C19.9038 16.517 19.7244 17.0997 19.5754 17.4868C19.3753 18 19.1367 18.3669 18.7497 18.7518C18.3669 19.1367 18 19.3748 17.4868 19.5727C17.0997 19.7238 16.5148 19.9038 15.4422 19.9549C14.2827 20.006 13.9391 20.0169 10.9986 20.0169C8.0609 20.0169 7.71458 20.006 6.55502 19.9549C5.48248 19.9038 4.90026 19.7238 4.51317 19.5727C3.99728 19.3748 3.63306 19.1367 3.24818 18.7518C2.86056 18.3669 2.62192 18 2.42458 17.4868C2.2756 17.0997 2.09352 16.517 2.04728 15.4444C1.99077 14.2849 1.98041 13.9358 1.98041 11.0014C1.98041 8.06089 1.99077 7.71458 2.04728 6.55502C2.09352 5.48248 2.2756 4.90025 2.42458 4.5099C2.62192 3.99728 2.86056 3.63249 3.24818 3.24761C3.63306 2.86329 3.99728 2.62461 4.51317 2.42458C4.90026 2.27291 5.48248 2.09568 6.55502 2.04459C7.71458 1.99346 8.0609 1.98041 10.9986 1.98041C13.9391 1.98041 14.2827 1.99346 15.4422 2.04459C16.5148 2.09568 17.0997 2.27291 17.4868 2.42458C18 2.62461 18.3669 2.86329 18.7497 3.24761C19.1367 3.63249 19.3753 3.99728 19.5754 4.5099C19.7244 4.90025 19.9038 5.48248 19.9527 6.55502C20.0065 7.71458 20.0195 8.06089 20.0195 11.0014C20.0195 13.9358 20.0065 14.2849 19.9527 15.4444V15.4444ZM21.9331 6.4648C21.8793 5.29273 21.6945 4.49196 21.4199 3.79452C21.1405 3.07094 20.766 2.45773 20.1527 1.84452C19.5423 1.23404 18.9291 0.859472 18.2055 0.5768C17.5053 0.304974 16.7072 0.117952 15.5346 0.0668648C14.362 0.0103141 13.9875 -1.78852e-06 10.9986 -1.78852e-06C8.0125 -1.78852e-06 7.63524 0.0103141 6.46264 0.0668648C5.29273 0.117952 4.49523 0.304974 3.79179 0.5768C3.07094 0.859472 2.45773 1.23404 1.84725 1.84452C1.23404 2.45773 0.859472 3.07094 0.57733 3.79452C0.305504 4.49196 0.120685 5.29273 0.0641342 6.4648C0.013047 7.6374 0 8.0125 0 11.0014C0 13.9875 0.013047 14.362 0.0641342 15.5346C0.120685 16.7045 0.305504 17.5047 0.57733 18.2055C0.859472 18.9263 1.23404 19.5423 1.84725 20.1527C2.45773 20.7632 3.07094 21.1405 3.79179 21.4227C4.49523 21.6945 5.29273 21.8793 6.46264 21.9331C7.63524 21.987 8.0125 22 10.9986 22C13.9875 22 14.362 21.987 15.5346 21.9331C16.7072 21.8793 17.5053 21.6945 18.2055 21.4227C18.9291 21.1405 19.5423 20.7632 20.1527 20.1527C20.766 19.5423 21.1405 18.9263 21.4199 18.2055C21.6945 17.5047 21.8793 16.7045 21.9331 15.5346C21.987 14.362 22 13.9875 22 11.0014C22 8.0125 21.987 7.6374 21.9331 6.4648V6.4648Z" fill="url(#paint1_linear_0_1)"/>
    <path d="M10.9987 14.6649C8.97476 14.6649 7.33247 13.0253 7.33247 11.0013C7.33247 8.97416 8.97476 7.33244 10.9987 7.33244C13.0232 7.33244 14.6676 8.97416 14.6676 11.0013C14.6676 13.0253 13.0232 14.6649 10.9987 14.6649V14.6649ZM10.9987 5.34929C7.87881 5.34929 5.35205 7.88147 5.35205 11.0013C5.35205 14.1185 7.87881 16.648 10.9987 16.648C14.1185 16.648 16.648 14.1185 16.648 11.0013C16.648 7.88147 14.1185 5.34929 10.9987 5.34929Z" fill="url(#paint2_linear_0_1)"/>
    <defs>
        <linearGradient id="paint0_linear_0_1" x1="0.19839" y1="21.7726" x2="20.1676" y2="1.80345" gradientUnits="userSpaceOnUse">
            <stop stop-color="#FFD521"/>
            <stop offset="0.05" stop-color="#FFD521"/>
            <stop offset="0.501119" stop-color="#F50000"/>
            <stop offset="0.95" stop-color="#B900B4"/>
            <stop offset="0.950079" stop-color="#B900B4"/>
            <stop offset="1" stop-color="#B900B4"/>
        </linearGradient>
        <linearGradient id="paint1_linear_0_1" x1="0.198437" y1="21.7999" x2="20.184" y2="1.81435" gradientUnits="userSpaceOnUse">
            <stop stop-color="#FFD521"/>
            <stop offset="0.05" stop-color="#FFD521"/>
            <stop offset="0.501119" stop-color="#F50000"/>
            <stop offset="0.95" stop-color="#B900B4"/>
            <stop offset="0.950079" stop-color="#B900B4"/>
            <stop offset="1" stop-color="#B900B4"/>
        </linearGradient>
        <linearGradient id="paint2_linear_0_1" x1="0.203661" y1="21.8005" x2="20.1844" y2="1.8197" gradientUnits="userSpaceOnUse">
            <stop stop-color="#FFD521"/>
            <stop offset="0.05" stop-color="#FFD521"/>
            <stop offset="0.501119" stop-color="#F50000"/>
            <stop offset="0.95" stop-color="#B900B4"/>
            <stop offset="0.950079" stop-color="#B900B4"/>
            <stop offset="1" stop-color="#B900B4"/>
        </linearGradient>
    </defs>
</svg>
