<svg xmlns="http://www.w3.org/2000/svg" width="18" height="22" viewBox="0 0 18.227 22.45">
  <path d="M1970.739,101.667a5.82,5.82,0,0,1-.164-.646,14,14,0,0,1-.137-3.712,19.781,19.781,0,0,1,.457-2.136c.421-1.736.858-3.467,1.282-5.2a.6.6,0,0,0-.027-.33,4.529,4.529,0,0,1,.071-3.7,2.412,2.412,0,0,1,1.789-1.439,1.724,1.724,0,0,1,2.161,1.668,4.963,4.963,0,0,1-.283,1.807c-.272.915-.558,1.826-.836,2.739a2.03,2.03,0,0,0,2.234,2.646,4.08,4.08,0,0,0,3.354-2.256,7.537,7.537,0,0,0,.938-3.472,6.149,6.149,0,0,0-.349-2.538,4.97,4.97,0,0,0-2.74-2.892,6.933,6.933,0,0,0-6.094.153,5.568,5.568,0,0,0-3.14,4.395,4.967,4.967,0,0,0,.985,3.837.517.517,0,0,1,.1.472c-.126.479-.249.96-.38,1.438-.082.3-.212.354-.505.219a3.829,3.829,0,0,1-1.477-1.208,6.682,6.682,0,0,1-1.377-4.569,7.764,7.764,0,0,1,1.787-4.567,8.2,8.2,0,0,1,3.861-2.581,11.6,11.6,0,0,1,5.254-.459,8.946,8.946,0,0,1,4.038,1.568,7.3,7.3,0,0,1,3.186,5.128,8.977,8.977,0,0,1-1.525,6.41,6.873,6.873,0,0,1-4.24,2.927,5.222,5.222,0,0,1-3.431-.232,3.088,3.088,0,0,1-1.391-1.147c-.188.684-.4,1.326-.54,1.982a15.433,15.433,0,0,1-2.6,5.525c-.041.059-.085.115-.128.173Z" transform="translate(-1966.583 -79.217)" fill="#c71922"/>
</svg>
