<svg xmlns="http://www.w3.org/2000/svg" width="25" height="20" viewBox="0 0 25.529 20.838">
  <path id="Path_101" data-name="Path 101" d="M2494.894,120.294a8.983,8.983,0,0,1-2.09,2.27.971.971,0,0,0-.448.894,14.769,14.769,0,0,1-1.322,6.287,15.055,15.055,0,0,1-3.406,4.872,14.045,14.045,0,0,1-7.084,3.655,15.642,15.642,0,0,1-3.607.3,14.832,14.832,0,0,1-7.408-2.232c-.035-.022-.068-.046-.164-.111a10.724,10.724,0,0,0,7.718-2.161,5.419,5.419,0,0,1-4.9-3.66,6.219,6.219,0,0,0,2.341-.11,5.308,5.308,0,0,1-3.022-1.887,5.11,5.11,0,0,1-1.136-3.325,5.269,5.269,0,0,0,2.3.622,5.3,5.3,0,0,1-1.542-6.986,14.987,14.987,0,0,0,10.789,5.48c-.021-.493-.066-.957-.055-1.419a5.228,5.228,0,0,1,4.577-5,5.149,5.149,0,0,1,4.344,1.476.333.333,0,0,0,.352.1,10.772,10.772,0,0,0,2.847-1.068c.071-.039.147-.071.274-.133a5.3,5.3,0,0,1-2.162,2.805l.031.071c.513-.117,1.031-.219,1.539-.357.408-.111.805-.265,1.208-.4Z" transform="translate(-2469.365 -117.739)" fill="#1796d6"/>
</svg>
